<svg width="191" height="150" viewBox="0 0 191 150" fill="none" xmlns="http://www.w3.org/2000/svg">
<path fill-rule="evenodd" clip-rule="evenodd" d="M47.7148 82.9573C48.8022 91.112 49.8894 99.2667 50.9768 107.421L51.8548 114.007C51.9657 114.838 51.8609 116.477 52.2832 117.221C52.4324 117.483 52.8244 117.608 53.1126 117.762C54.1047 118.295 55.097 118.828 56.0891 119.361C64.4816 123.866 72.8742 128.372 81.2663 132.878C89.3207 137.202 97.375 141.526 105.429 145.851C106.263 146.298 107.611 147.466 108.511 147.158C109.366 146.866 110.24 146.145 111.016 145.69C112.507 144.816 113.997 143.943 115.488 143.069C124.508 137.783 133.527 132.497 142.546 127.212C146.267 125.031 149.989 122.85 153.71 120.669C154.728 120.073 155.746 119.476 156.764 118.879C157.297 118.567 157.366 118.578 157.576 118.048C158.359 116.068 158.722 113.8 159.277 111.745C159.888 109.481 160.499 107.216 161.11 104.952C161.382 103.941 161.254 103.811 160.81 102.836C159.931 100.905 159.051 98.9749 158.172 97.0445C156.22 92.7601 154.268 88.4756 152.316 84.1911C151.527 82.4585 149.626 81.2394 148.257 79.965L127.005 60.1787C126.465 59.676 125.925 59.1736 125.385 58.6709C125.297 61.6916 124.7 64.9388 125.575 67.8569C127.012 72.6457 128.449 77.4344 129.885 82.2232C130.58 84.538 131.274 86.8525 131.968 89.167C132.097 89.5971 132.883 91.3024 132.673 91.6807C132.556 91.8903 131.564 92.1025 131.349 92.1841C130.426 92.5353 129.503 92.8865 128.58 93.2378C126.008 94.2163 123.436 95.1949 120.864 96.1732C118.55 97.0535 116.237 97.9335 113.923 98.8136C113.139 99.1121 112.218 99.6647 111.389 99.6187C110.648 99.5774 109.805 99.2106 109.088 99.026C107.827 98.7013 106.566 98.3764 105.305 98.0515C102.829 97.4137 100.352 96.7758 97.875 96.1377C95.0884 95.4199 92.7352 93.3118 90.3521 91.7515C86.256 89.0694 82.1598 86.3874 78.0639 83.7056C77.1261 83.0916 77.1227 82.7412 76.749 81.6202C75.9093 79.1008 75.0693 76.5814 74.2296 74.0621C73.7813 72.7169 73.2298 71.366 72.8911 69.9888C72.3325 67.716 72.0012 65.3632 71.5588 63.0651C71.4255 62.3718 71.2919 61.6783 71.1586 60.985C69.4432 61.681 67.7278 62.3773 66.0121 63.0736C65.7635 63.1744 64.552 63.4753 64.4443 63.7225C64.376 63.8787 64.7364 64.5878 64.788 64.7402C66.2103 68.953 67.6327 73.1655 69.0553 77.3781C69.5027 78.7033 69.95 80.0283 70.3974 81.3535C69.3284 79.6734 68.2591 77.993 67.1898 76.3129C66.3498 79.1386 65.5097 81.9645 64.6695 84.7902C62.684 82.4991 60.6982 80.2079 58.7125 77.9167C58.0251 80.2079 57.3378 82.4991 56.6504 84.7902C54.5121 81.9645 52.3737 79.1386 50.2351 76.3129C49.981 77.7875 49.7267 79.2621 49.4724 80.7367C49.3957 81.1819 49.411 82.4587 49.1148 82.8111C48.8707 83.1012 48.1683 82.9573 47.7148 82.9573Z" fill="#FE672F" fill-opacity="0.45"/>
<path fill-rule="evenodd" clip-rule="evenodd" d="M183.107 100.585C182.987 104.423 183.07 109.406 180.97 112.782C180.631 113.326 179.482 115.023 179.354 113.53C179.228 112.065 179.589 110.614 179.231 109.131C179.04 108.338 178.398 106.605 177.299 107.322C176.739 107.687 176.592 108.589 176.373 109.158C176.049 110 175.686 110.829 175.345 111.664C174.153 114.581 172.919 118.062 170.27 119.992C170.617 117.477 171.562 114.791 170.927 112.249C170.71 111.382 170.054 109.8 168.926 110.308C167.825 110.802 167.112 113.01 166.593 113.993C165.019 116.973 163.409 119.897 161.637 122.766C160.745 124.209 159.783 125.527 158.616 126.762C157.887 127.534 156.977 128.839 155.828 128.954C155.828 126.753 156.552 124.628 157.213 122.556C157.924 120.328 158.572 118.081 159.27 115.849C159.875 113.912 160.372 111.991 160.775 110.006C160.942 109.184 161.074 108.334 161.774 107.804C162.403 107.327 163.397 107.1 164.099 106.75C165.941 105.83 167.835 104.837 169.547 103.693C170.249 103.223 170.854 102.616 171.59 102.195C172.428 101.715 173.211 101.311 173.987 100.726C177.333 98.2019 180.35 95.0969 182.383 91.4008C182.713 92.8857 183.15 94.3367 183.198 95.8674C183.247 97.4369 183.157 99.0162 183.107 100.585ZM155.565 118.229C155.03 117.325 154.215 117.695 153.496 118.131C152.381 118.807 151.263 119.478 150.143 120.146C147.862 121.505 145.624 122.934 143.396 124.377C138.861 127.313 134.167 129.715 129.386 132.2C124.765 134.602 120.326 137.46 115.996 140.348C114.956 141.042 113.922 141.753 112.923 142.506C112.036 143.174 111.327 144.113 110.393 144.708C109.421 145.327 108.752 144.824 107.822 144.368C106.659 143.796 105.447 143.317 104.259 142.802C99.4611 140.722 94.6498 138.563 89.9829 136.202C85.3442 133.856 80.9491 131.153 76.5045 128.468C74.3876 127.189 72.307 125.829 70.2191 124.503C67.9971 123.093 65.6965 122.036 63.3657 120.837C62.3345 120.306 61.421 119.585 60.3618 119.103C59.2483 118.596 58.072 118.232 57.0749 117.5C56.6279 117.172 56.2507 116.78 55.7398 116.548C55.3203 116.358 54.8442 116.326 54.4299 116.123C53.5872 115.712 53.346 114.877 53.1829 114.008C52.1333 108.432 51.5754 102.702 50.9671 97.0634C50.6252 93.8929 50.2437 90.7348 49.7713 87.581C49.5582 86.1591 49.9867 85.0575 50.2117 83.6743C50.4742 82.0588 50.578 80.4094 50.754 78.7829C51.5843 80.3212 52.3024 81.9355 53.3588 83.3393C54.1376 84.3738 55.4678 85.8408 56.9019 85.8062C59.1307 85.7524 59.0288 81.9296 59.1186 80.4121C60.1338 81.3183 60.4417 82.7945 61.2844 83.8471C62.0538 84.808 63.1009 86.0003 64.2824 86.4306C66.7702 87.3367 66.5308 82.7189 66.394 81.4093C66.3252 80.7524 65.9543 79.7131 66.8343 80.0126C67.6447 80.2884 68.4333 81.4319 69.1145 81.9564C70.2919 82.8632 71.5835 83.6168 72.7914 84.4824C74.29 85.5565 75.9071 86.3327 77.4351 87.3331C78.3908 87.9588 79.4333 88.0992 80.475 88.5593C82.0014 89.2336 83.3498 90.2385 84.8026 91.0468C87.6796 92.6468 90.8712 94.0815 94.0182 95.0461C95.0363 95.3581 96.3932 96.2379 97.1655 95.3338C97.6412 94.7775 97.9537 93.9277 98.3574 93.3041C98.8681 92.5145 99.4104 91.7459 99.9736 90.9928C101.976 88.3164 104.197 85.7893 106.665 83.532C109.535 80.9061 112.674 78.543 116.032 76.5749C117.474 75.7292 123.498 71.9389 124.822 74.6065C123.734 74.5387 122.791 74.9367 121.86 75.435C121.633 75.5567 120.462 76.393 120.736 75.6559C120.396 75.7196 120.098 76.1632 119.84 76.3604C119.395 76.7014 118.72 77.095 118.204 77.3773C117.695 77.6561 117.065 77.7244 116.601 78.0625C116.431 78.186 116.328 78.3863 116.166 78.5199L115.703 78.5235C115.633 78.7804 115.564 79.037 115.494 79.2938C115.232 78.4536 114.858 79.5463 114.421 79.9012C114.157 80.1145 113.741 80.3342 113.431 80.4719C113.199 80.5748 113.163 80.3356 112.938 80.5175C112.738 80.6791 112.611 81.0349 112.396 81.2374C112.132 81.4853 111.795 81.678 111.501 81.8897C110.938 82.2952 110.342 82.6137 109.772 82.9982C109.004 83.5155 108.601 84.4052 107.856 84.9461C107.503 85.2023 106.955 85.2323 106.764 85.3963C106.285 85.8083 106.443 86.4324 105.549 86.4599C105.63 86.59 105.679 86.7312 105.696 86.8835C105.483 86.8469 105.294 86.7587 105.128 86.6187C105.165 87.5099 104.289 87.8282 103.764 88.3769C103.461 88.6931 103.083 89.1378 102.87 89.5184C102.834 89.5821 102.767 90.09 102.752 90.0969C102.671 90.1359 102.177 89.7021 102.224 89.7383C102.086 90.5618 101.289 91.3403 100.94 92.1026C100.756 92.5042 100.57 93.1499 100.208 93.4324C100.109 93.5091 99.8059 93.4289 99.5554 93.6959C99.3717 93.8915 99.1598 94.2533 99.0851 94.5129C99.0354 94.6863 99.0952 95.135 99.0237 95.239C98.8926 95.4291 98.6887 95.2381 98.4834 95.3787C98.104 95.6386 98.0944 96.0445 97.5392 96.0979C97.9218 97.0277 100.232 97.3143 101.072 97.5787C103.447 98.3261 105.938 99.0726 108.158 100.217C108.732 100.513 109.275 100.757 109.377 101.439C109.519 102.388 109.035 103.65 108.943 104.609C108.693 107.198 108.642 109.863 108.694 112.463C108.744 114.925 108.823 117.411 108.938 119.87C109.045 122.151 109.504 124.386 109.753 126.65C109.821 127.272 109.775 130.075 110.844 129.933C111.736 129.816 111.173 127.901 111.156 127.353C111.119 126.138 111.374 124.898 111.363 123.673C111.358 123.084 111.616 122.576 111.641 122.013C111.665 121.456 111.388 121.016 111.471 120.438C111.551 119.884 113.189 116.698 111.616 117.071C111.708 116.615 111.789 116.156 111.91 115.707C112.079 115.858 112.214 116.035 112.316 116.237C112.456 115.258 112.41 114.281 112.496 113.302C112.535 112.858 112.715 112.372 112.654 111.925C112.666 111.739 112.642 111.557 112.583 111.379C112.487 111.277 112.367 111.223 112.224 111.218C112.15 110.973 112.13 110.905 112.263 110.665C112.32 110.502 112.433 110.4 112.603 110.36C112.925 110.322 112.962 110.136 112.713 109.804C112.843 109.148 112.86 108.734 112.766 108.079C112.687 107.529 112.977 106.463 112.682 105.974C112.337 105.401 112.166 105.956 112.101 105.163C112.088 104.995 112.077 104.645 112.144 104.477C112.218 104.295 112.441 104.37 112.469 104.305C112.662 103.864 112.675 102.995 111.992 103.071C112.018 102.756 112.045 102.441 112.072 102.126C112.566 102.694 112.393 102.213 112.673 101.897C113.05 101.471 113.419 101.398 113.958 101.229C115.395 100.781 116.779 100.107 118.183 99.5599C121.156 98.4013 124.185 97.3668 127.071 95.9976C133.141 93.1174 139.09 89.9915 145.197 87.1873C144.761 86.3776 145.032 86.3382 145.351 85.578C145.777 85.8736 145.687 85.6674 145.99 85.6493C145.963 85.3957 146.041 85.3191 146.227 85.4197C146.374 85.4649 146.525 85.4809 146.68 85.4676C147.058 85.5324 147.367 85.7405 147.71 85.8195C147.823 85.9027 147.947 85.965 148.082 86.0069C148.204 85.9792 148.307 85.9192 148.393 85.8266C148.949 85.9297 149.137 86.3488 149.161 86.9555C149.165 87.0611 148.842 87.1693 148.935 87.3111C149.096 87.559 149.531 87.4999 149.78 87.5315C149.725 87.789 149.671 88.0463 149.617 88.3036C150.708 87.7998 150.424 89.3768 150.755 89.8948C150.847 90.0394 151.052 89.9239 151.159 90.0914C151.299 90.31 151.257 90.6195 151.376 90.8372C151.645 91.3296 151.913 91.2698 152.181 91.8336C153.581 94.7775 155.443 97.5203 156.787 100.527C157.426 101.959 158.003 103.415 158.671 104.833C159.286 106.139 159.637 107.249 159.199 108.675C158.183 111.983 157.096 115.351 155.765 118.546C155.698 118.44 155.632 118.334 155.565 118.229ZM84.7011 142.919C84.6058 143.081 84.5105 143.243 84.4152 143.406C84.2035 142.188 84.7676 142.753 84.7011 142.919ZM80.22 140.639C79.9146 140.547 80.0466 140.049 80.0564 139.835C80.2496 140.076 80.4391 140.321 80.5999 140.586C80.4732 140.603 80.3465 140.621 80.22 140.639ZM67.9387 135.957C68.2594 135.778 68.4902 135.648 68.8538 135.444C68.4842 136.165 68.4842 136.165 67.9387 135.957ZM48.6175 72.5065C48.1274 73.7093 49.6217 81.1364 48.2305 81.3788C48.0309 80.7269 48.006 78.932 47.18 78.7178C46.1552 78.4518 46.2562 80.2996 46.1162 80.8711C44.0122 79.4072 43.0777 76.5804 42.0725 74.3401C40.7913 71.4846 39.7832 68.5145 38.8204 65.5392C37.9972 62.9953 37.3165 60.4066 36.4846 57.8668C35.962 56.2717 35.3986 54.6727 35.0471 53.0285C34.9708 52.6713 34.6704 51.7656 34.9257 51.4261C35.2966 50.9323 36.6319 51.4978 37.0622 51.6275C39.8535 52.4674 42.7491 52.829 45.617 53.317C48.8033 53.8588 51.9825 54.419 55.1881 54.8392C55.9891 54.9442 56.7905 55.0436 57.5924 55.1403C58.1125 55.2031 58.8998 55.1403 59.3938 55.3735C60.3936 55.8453 60.6065 57.6507 60.9779 58.5874C62.3633 62.0819 63.994 65.4659 65.4528 68.9288C66.767 72.0482 67.7632 75.367 69.6522 78.2073C68.2434 77.5828 66.4579 74.2807 64.8836 76.184C64.2068 77.0024 64.3775 78.0806 64.4316 79.0601C64.5099 80.4761 64.5345 81.9025 64.5345 83.3208C62.9939 82.9205 61.9587 81.1717 61.15 79.9328C60.0452 78.2408 59.3493 76.6464 58.8601 74.7067C58.6482 73.8667 58.0864 73.8459 57.5872 73.3432C57.2664 73.0201 57.1051 72.5848 56.645 73.0547C56.0668 73.6454 56.4514 75.2811 56.5513 75.9785C56.7885 77.638 57.5663 80.1919 56.8102 81.7513C55.7898 83.8558 53.0552 78.5606 52.7349 77.7958C52.572 77.4066 49.6627 69.9408 48.6175 72.5065ZM46.7071 36.4412C46.8794 36.4675 47.0515 36.4938 47.2238 36.5202C47.0849 36.6428 46.796 37.0726 46.56 36.959C46.609 36.7864 46.6581 36.6139 46.7071 36.4412ZM55.8328 34.4829C55.779 34.5422 55.7247 34.6013 55.6706 34.6607C55.4236 34.3518 55.5111 33.9016 55.5111 33.5444C55.8376 33.7417 55.9174 34.1362 55.8328 34.4829ZM56.5704 37.9096V38.919C55.8862 38.6226 55.8727 38.4695 56.5704 37.9096ZM57.4011 39.1931C56.9218 39.0616 56.8645 38.9555 56.9319 38.2189C57.1305 38.6315 57.2614 38.9035 57.4011 39.1931ZM60.1602 46.6692C59.9592 47.1861 58.785 45.9543 58.8281 45.5857C58.8691 45.234 59.0494 45.129 59.2982 45.3552C59.3805 45.4301 59.2584 45.7007 59.3108 45.7946C59.5003 46.1346 59.8822 46.4128 60.1602 46.6692ZM60.1732 49.7833C59.879 50.5179 59.3546 49.3611 60.1233 49.3294C60.1737 49.4772 60.1904 49.6284 60.1732 49.7833ZM59.6025 48.6251C59.4886 48.4732 59.378 48.3193 59.2705 48.1625C59.6664 48.2425 59.9808 48.8194 60.3984 48.4345C60.349 49.0215 59.932 49.0378 59.6025 48.6251ZM33.9998 39.0838C33.3631 38.3889 37.5149 37.9011 38.0158 37.7817C41.6505 36.915 45.0822 35.6608 48.4807 34.1218C50.1019 33.3877 51.7149 32.6447 53.2981 31.8309C53.9818 31.4796 54.9189 31.1818 55.4898 30.6543C55.8974 30.2779 55.8812 29.9931 56.4109 29.7688C56.8606 29.5789 56.8831 29.7583 57.0891 29.4146C57.2128 29.2084 57.3528 28.4528 57.2804 28.2291C57.0831 27.619 56.7915 28.1137 56.382 27.6932C56.0872 27.3901 56.1586 26.5282 56.239 26.1712C56.3435 26.3412 56.4036 26.5259 56.4196 26.7248C56.8638 26.5057 56.6847 25.7535 57.1706 25.6303C57.6827 25.5006 57.6298 25.8995 57.7634 26.3073C58.1503 25.7391 57.8401 25.2545 57.6307 24.6996C58.6954 24.5003 59.8394 24.3071 60.8947 24.6613C61.6579 24.9173 62.3111 25.5466 63.1169 25.6683C63.906 25.7872 64.0577 25.4131 64.6394 25.0334C65.1116 24.7253 65.5171 25.0882 65.7602 24.8554C65.6104 25.6413 64.3221 25.5338 64.4806 26.5158C64.5521 26.9578 65.0937 27.3548 65.3403 27.6987C65.6498 28.1304 65.8966 28.6076 66.1074 29.0941C66.9274 30.9861 67.2779 33.1817 67.622 35.2051C68.4712 40.1994 68.5786 45.2922 69.3773 50.3025C69.7579 52.689 70.1394 55.0768 70.3371 57.4867C70.3866 58.0893 70.7545 59.456 70.4535 60.0356C70.1989 60.525 69.6325 60.5264 69.1354 60.6448C68.1625 60.876 67.249 61.1901 66.3158 61.5382C65.4793 61.85 65.2363 62.0413 64.6992 61.2543C64.1798 60.4927 63.923 59.5849 63.5513 58.75C63.078 57.6863 62.5061 56.6598 61.9571 55.6336C63.0356 55.6336 63.6563 55.0514 63.6276 53.9555C63.5965 52.7417 62.5982 52.4537 62.1867 51.4561C61.7864 51.976 61.7528 51.9906 61.4675 51.4971C61.1412 50.9328 60.9211 49.9002 60.7215 49.26C60.8642 49.4124 61.007 49.5647 61.1497 49.7169C61.5097 49.2215 60.9458 48.4407 60.7572 47.9742C60.4663 47.2539 60.4149 46.4751 60.1389 45.7568C59.9883 45.3648 59.6396 45.0562 59.5541 44.6472C59.4971 44.3734 59.7258 44.1129 59.6715 43.835C59.5771 43.3511 59.0297 42.8319 58.8595 42.3398C58.5976 41.5828 58.3132 40.9163 57.9884 40.1787C57.5487 39.1805 57.6509 38.133 57.5704 37.0705C57.4871 35.9689 57.1342 34.915 57.0096 33.8182C56.9234 33.0605 57.1931 32.1065 56.6198 31.4996C56.5527 32.5084 56.8419 32.4928 55.894 32.6742C54.8149 32.8807 54.0322 33.6846 53.0119 33.9245C52.8016 33.974 52.6483 33.0553 52.7304 34.3085C52.241 33.9472 51.1964 34.3958 51.5861 34.6103C51.2908 34.9262 50.7091 34.7077 50.6119 35.181C49.6082 34.2052 47.9986 37.5267 46.8033 35.7941C46.6061 36.9683 45.7558 37.6626 44.6143 37.8179C44.0404 37.8958 43.6866 38.0871 43.1773 38.2592C43.074 38.2938 43.036 38.4425 42.9136 38.4826C42.7266 38.5435 42.4522 38.3595 42.3174 38.3953C42.0432 38.4681 41.7382 38.829 41.3554 38.9007C40.9164 38.983 40.4375 38.9452 39.9981 38.8943C39.4487 38.8306 39.207 38.7655 38.669 38.9465C38.1851 39.1094 37.6668 39.5656 37.2178 39.0689C36.5123 40.2894 34.8304 39.9911 33.9998 39.0838ZM66.6132 24.3555C66.0794 24.2915 66.4501 23.8324 66.6973 23.6945C67.3691 23.3201 67.1897 24.4247 66.6132 24.3555ZM37.0526 28.7353C40.186 24.2148 45.5455 21.1089 50.2612 18.4956C52.8369 17.0682 55.466 15.6845 58.1705 14.5163C59.5152 13.9357 60.8755 13.3776 62.2486 12.8675C62.9817 12.5951 63.7238 12.3474 64.4664 12.1009C64.6717 12.0329 65.0452 11.8239 65.2601 11.8443C65.223 11.8406 65.7942 11.996 65.6819 12.0448C66.0498 11.8846 66.2249 11.4669 66.6575 11.2999C67.1436 11.112 67.7629 11.0344 68.2837 11.0174C68.7445 11.0023 69.1434 11.1927 69.5824 11.2076C69.8708 11.2172 70.116 11.0802 70.3985 11.06C70.5431 11.05 70.5302 11.2662 70.6173 11.2788C70.6551 11.2843 71.0437 11.1423 71.0437 11.1423C71.1839 11.2323 71.3081 11.5838 71.4348 11.721C71.7982 12.1147 72.3315 12.3889 72.8161 12.596C73.4059 12.8481 74.8445 13.1015 74.1778 14.034C74.6514 13.9659 74.8718 14.3939 74.2788 14.5023C73.9576 14.5612 73.8203 14.267 73.5818 14.0663C73.0308 13.6035 71.6932 12.9445 70.8996 12.9743C70.453 12.991 70.108 13.3299 69.6962 13.4529C69.2909 13.5739 69.0902 13.3863 68.7346 13.416C68.319 13.4506 68.0514 13.8023 67.6553 13.8649C67.2843 13.9235 67.0777 13.6706 66.7461 13.6882C66.352 13.7091 65.9703 14.0514 65.5941 14.1664C64.9957 14.3492 64.5562 14.4739 63.972 14.777C62.8397 15.3647 61.5752 15.5878 60.4083 16.0937C59.4753 16.4981 58.4175 16.711 57.5542 17.1582C56.5942 17.6552 55.6298 18.1503 54.6898 18.6903C54.0107 19.0805 52.63 19.2148 51.8812 19.1156C51.8705 20.4944 51.1918 19.5277 50.5079 20.1317C50.6697 20.2744 50.8534 20.3794 51.0585 20.4465C50.3173 20.7425 49.6322 21.1109 48.9142 21.4512C48.1721 21.8031 47.3802 21.8805 46.8927 22.5461C46.4436 23.1595 46.5958 22.8431 45.9256 23.0846C45.6181 23.1954 45.3507 23.5336 45.1292 23.7607C44.7484 24.1511 44.6641 24.7422 44.4466 23.9398C44.3832 24.0377 44.1334 24.6606 44.0849 24.6765C43.8124 24.3873 43.7733 24.7301 43.6209 24.8526C43.7011 25.1191 43.5865 25.2937 43.2772 25.3764C43.1207 25.4928 42.9622 25.6069 42.802 25.7185C42.221 26.1215 41.4814 26.4672 41.0722 27.0677C40.7704 26.8897 40.6586 26.5825 40.8424 26.2688C40.2657 26.8004 39.5777 27.3464 39.4216 28.1645C39.3499 28.0953 39.2663 28.0454 39.1714 28.0147C38.9373 28.1728 39.2422 28.6438 39.3907 28.7499C40.0382 28.4984 39.229 28.5895 39.664 28.6301C39.788 28.6416 39.9154 28.7343 40.0522 28.7359C40.4534 28.7412 40.8302 28.722 41.228 28.6608C42.1051 28.5256 42.967 28.2738 43.8161 28.0213C44.7408 27.7464 45.6658 27.4719 46.5701 27.1346C47.3147 26.857 48.047 26.5474 48.779 26.239C49.0714 26.1158 49.3635 25.9909 49.6563 25.8685C50.2124 25.6362 50.5056 25.2545 50.428 25.9084C50.8708 25.8349 51.2546 25.2089 51.5946 24.9535C52.073 24.5944 52.611 24.3266 53.1778 24.1433C53.4074 24.0691 53.576 23.9747 53.8134 23.974C53.9298 23.9737 53.9994 24.3018 54.0728 24.284C54.5814 24.1607 54.3495 23.8789 54.5782 23.4729C55.0783 22.5855 56.4256 22.0948 57.2529 21.5907C57.778 21.2706 58.1508 20.8401 58.6356 20.4857C58.8624 20.32 59.0272 20.2467 59.2648 20.1766C59.4467 20.1228 59.6699 20.5407 59.7878 20.1207C59.3647 19.9477 59.0157 19.7344 58.6086 19.6082C58.3206 19.5186 58.6661 19.2122 58.2097 19.3946C58.0264 19.4679 57.9634 19.8226 57.896 19.9711C57.3862 19.5158 55.9529 19.9876 55.348 20.1782C55.3063 20.1913 55.1196 20.0927 55.0316 20.0987C54.6824 20.1221 54.4393 20.592 54.2095 20.7945C53.5985 21.3327 52.9356 21.5577 52.1832 21.865C52.3835 20.7709 53.8551 20.3228 54.714 19.9037C55.9696 19.2911 57.1386 18.5091 58.5133 18.1796C59.4288 17.9599 60.642 17.7832 61.0375 18.8477C61.2741 19.4858 61.3039 21.0711 60.5032 21.3655C60.4186 21.0676 60.6894 20.8131 60.771 20.5546C59.9739 20.8589 59.8426 21.8164 59.2373 22.3161C58.897 22.5968 58.7754 22.6868 58.6109 22.9581C58.4475 23.2275 58.3692 23.4789 57.9863 23.7655C57.3606 22.4364 57.4664 24.2569 57.1491 24.4854C57.2767 24.3935 56.632 24.6618 56.709 24.6334C56.6792 24.6444 56.3983 24.1894 56.2161 24.199C55.8846 24.2164 55.9483 24.5814 55.7886 24.7651C55.2472 25.3869 54.5477 25.7948 53.6764 25.6969C53.656 26.1394 53.7925 26.6679 53.1884 26.7083L53.1091 25.7274C52.7803 26.0601 52.3475 26.376 52.0799 26.7612C51.7754 27.1995 51.8079 27.4694 51.3027 27.7615C50.7748 28.0669 49.6517 28.6686 49.0235 28.7206C49.1788 28.5002 49.1513 28.3011 48.9414 28.1237C48.6255 28.4496 48.159 28.4816 47.8227 28.7758C48.9903 29.2636 46.9257 29.2384 46.6638 29.2936C46.4885 29.3307 46.3355 29.4904 46.1579 29.5264C45.9221 29.5743 45.8917 29.3264 45.6887 29.405C45.3917 29.52 45.5123 29.8446 45.2016 30.0078C44.9784 30.1251 44.5999 30.1235 44.3481 30.2348C43.7481 30.5006 42.4698 31.0892 42.0643 30.3753C41.8588 31.6001 39.7598 30.8546 38.9829 30.7721C37.9189 30.6592 36.0655 30.1597 37.0526 28.7353ZM41.5217 16.203C41.6723 16.0745 41.823 16.0839 41.9738 16.2314C41.7639 15.123 43.3872 14.5848 44.0954 14.1135C45.0348 13.4884 46.1405 12.2757 47.3697 12.3717C47.1601 12.5271 46.9509 12.6824 46.7415 12.8377C47.0405 12.8765 47.3392 12.9152 47.6378 12.9539C47.4694 13.2014 47.3007 13.4486 47.1319 13.6958C46.856 12.1754 45.4167 14.0949 45.0002 14.3747C44.5807 14.6563 44.1623 14.8661 43.7895 15.2096C43.4202 15.5498 43.0868 16.1625 42.4762 15.8564C42.4205 16.7247 41.7224 16.4892 41.2397 16.9701C41.2195 16.6684 41.3923 16.455 41.5217 16.203ZM47.899 11.8684C49.3848 11.3118 50.6784 10.2829 52.0785 9.54786C53.4159 8.84571 54.7803 8.21518 56.1398 7.56013C56.8295 7.22768 58.0928 6.36804 58.8812 6.80611C59.945 7.39769 58.4805 7.58854 58.1002 7.79337C57.9595 6.8824 57.4667 7.70768 57.7611 8.21449C56.9493 7.86394 55.1789 9.23544 54.4045 9.61362C54.2292 9.69931 54.3078 9.74879 54.1085 9.84961C54.0595 9.87435 53.5513 9.99006 53.4058 10.0389C52.6767 10.2829 52.1963 10.089 51.8822 10.9691C51.8164 10.762 51.7507 10.5546 51.6849 10.3472C51.2285 11.3721 49.8412 11.8207 48.954 12.4267C48.7254 12.583 48.0724 13.189 47.7823 13.0637C47.3786 12.8891 47.5406 12.0024 47.899 11.8684ZM74.7027 14.9582C75.33 14.9997 74.7251 15.2923 74.8974 15.4857C74.8779 15.4639 75.2752 15.8028 75.2232 15.7097C75.2933 15.8348 75.4617 15.8302 75.5479 16.0846C75.8446 16.9591 74.5489 17.8627 74.112 18.359C73.2624 19.3243 72.7714 20.5466 71.8861 21.481C71.4863 21.903 71.0886 22.1944 70.5343 22.3518C70.1465 22.462 69.7361 22.344 69.3796 22.717C69.0925 23.0174 69.1576 23.1881 68.8403 23.3478C68.2812 23.6294 68.0349 23.3824 67.491 23.9909C67.0229 22.7184 68.3678 22.7205 69.0696 22.0093C70.0383 21.0275 71.0998 20.0371 72.0083 18.9868C72.8152 18.0536 73.1385 17.2354 73.5216 16.1018C73.6423 15.7443 73.7738 14.9779 74.1067 14.7536C74.6252 14.4045 74.3141 14.9323 74.7027 14.9582ZM77.7875 48.0152C79.4328 46.175 81.4738 44.5226 83.6861 43.4141C84.4768 43.0177 85.6025 42.4976 86.422 43.1078C87.2257 43.7058 87.0528 44.8988 86.7288 45.7103C86.4183 45.5884 86.7114 44.4479 86.5503 44.1661C86.1988 43.5511 85.4405 43.8776 84.9245 44.0838C84.3201 44.3253 83.7807 44.592 83.3021 45.0303C83.1078 45.2079 82.736 45.3671 82.6116 45.4892C82.4246 45.4115 82.3144 45.4681 82.2814 45.6588C82.3199 45.7756 82.3153 45.8906 82.2674 46.0038C82.2402 46.0398 81.9971 45.8922 81.9625 45.9218C81.8048 46.0567 81.6573 46.2155 81.5022 46.3408C81.1908 46.5926 80.9259 46.7118 80.6393 47.0628C80.0858 47.7412 79.3535 48.1387 78.7974 48.7851C78.6719 48.9312 78.5214 49.3058 78.4932 49.3386C78.2121 49.6667 77.7953 49.9263 77.4782 50.2736C76.9299 50.8737 76.3445 51.2765 75.7119 51.7911C75.4395 52.0124 75.1217 52.2509 74.9405 52.5588C74.858 52.6993 74.8085 53.4723 74.8085 53.4723C74.1881 54.1524 74.3088 52.7854 74.3556 52.6141C74.8594 50.7699 76.5629 49.3853 77.7875 48.0152ZM74.4009 60.4854C74.4781 60.775 74.5416 61.0144 74.62 61.3084C74.128 60.9049 74.128 60.9049 74.4009 60.4854ZM73.8696 61.4339C73.6888 61.6161 73.5071 61.7971 73.3241 61.9769C72.9215 61.5515 73.9434 61.3611 73.8696 61.4339ZM73.6141 54.1109C73.4217 54.8894 72.7171 55.8331 72.2328 56.4476C72.2862 56.3798 71.8195 56.5162 71.7663 56.5471C71.5938 56.647 72.0069 57.2945 71.4091 57.0051C71.197 57.1251 71.6146 57.6141 71.3264 57.8329C70.4933 55.9347 72.768 54.2901 73.6487 52.881C74.0795 53.2764 73.7223 53.6744 73.6141 54.1109ZM68.2031 64.3739C68.8105 64.5302 69.1264 64.4319 69.5365 63.8353C69.7831 63.477 69.8731 62.8423 70.437 63.3784L70.5364 62.689C71.3413 63.0192 71.2737 64.2124 71.6254 64.8736C71.7966 64.1256 72.2019 62.0358 73.443 62.371C74.8363 62.7474 72.5174 65.1436 72.302 65.7306C71.8284 64.9955 72.0147 65.6792 71.6534 65.7828C71.3434 65.8719 70.859 65.6437 70.4823 65.6643C69.3363 65.7267 68.3296 66.2422 67.2827 66.6786C67.0176 65.964 66.7528 65.2494 66.4877 64.5348C67.104 64.5822 68.3784 62.9417 68.5594 64.1341C68.1023 64.0546 67.9735 64.0747 67.7508 64.4908C67.8931 64.4186 68.0438 64.3797 68.2031 64.3739ZM70.7756 73.7015C70.7738 73.6958 71.9611 73.7691 72.0669 73.7304C72.8794 73.4337 72.579 72.5122 72.7451 71.8608C73.0801 72.1687 72.9025 72.7308 73.0058 73.1292C73.127 73.5975 73.478 73.9966 73.5106 74.4975C73.5846 75.6291 72.656 75.378 71.9521 75.7441C71.3507 76.0571 71.284 76.4507 70.7761 75.6073C70.6386 75.3791 70.343 74.7846 70.3733 74.4927C70.4031 74.2035 70.8611 73.9632 70.7756 73.7015ZM71.7324 78.5982L71.4041 78.2305C72.3824 78.5299 71.8055 78.0797 72.0305 77.4641C72.7813 77.964 73.3937 78.4779 73.9878 77.4769L75.0143 81.6171C74.3249 81.7793 73.4354 80.7141 72.9625 80.3482C72.6894 80.1367 71.1738 79.3222 72.0839 79.0849C71.9666 78.9226 71.8495 78.7604 71.7324 78.5982ZM78.4327 65.5977C77.8629 66.1395 77.2889 66.4429 76.6685 66.8688C76.1243 67.2427 76.3118 67.6719 75.84 68.0889C75.5268 68.3661 74.7925 68.6484 74.4055 68.8598C73.7161 69.2365 73.0986 69.3082 72.3895 68.8866C72.5824 70.4403 71.5184 70.5619 70.1939 70.8696C69.5622 71.0165 69.1883 71.2408 68.733 70.6623C68.4212 70.2664 68.2991 69.5495 68.687 69.1872C69.3031 68.6117 70.9445 68.8103 71.7349 68.4483C72.3347 68.1739 72.9458 66.6271 73.6859 67.19C73.3039 66.5817 73.7486 66.4179 74.0806 65.9842C74.4442 65.5088 74.6676 64.9529 75.0438 64.4814C75.7587 63.5851 76.8561 62.6835 77.8714 62.143C78.7647 61.6676 79.2337 62.0042 79.3675 63.0027C79.4349 63.5047 79.4323 64.2525 79.1512 64.6979C79.0616 64.84 78.7658 64.8416 78.6763 64.9749C78.5202 65.2079 78.6634 65.3782 78.4327 65.5977ZM88.9155 53.5477C89.6283 54.0994 89.5588 55.2588 89.6711 56.0483C89.8294 57.1611 89.7147 58.238 89.6977 59.3714C89.6798 60.5589 89.0972 61.3324 88.8229 62.4455C88.5182 63.6836 88.1248 64.3393 87.4411 65.3784C88.1825 65.495 87.0791 67.7092 86.8972 67.9958C86.6997 68.307 85.1071 69.7408 85.7899 69.7408C85.4132 70.2375 85.0031 70.7473 84.6278 71.2303C84.48 71.4204 84.2209 71.4951 84.1045 71.6294C83.8673 71.9023 83.8529 72.1456 83.6831 72.4641C83.4254 72.9473 83.3406 72.8183 83.0017 73.1688C82.7678 73.411 82.6143 73.7306 82.3845 73.9627C81.644 74.7103 81.5496 74.0979 81.1356 73.5221C81.0721 73.6763 80.9594 73.773 80.7974 73.8122C80.6677 73.1606 81.5604 72.5023 81.9357 72.1064C82.5504 71.4576 83.1122 70.7427 83.6557 70.0331C84.8196 68.5127 85.8655 66.8974 86.6908 65.1672C87.5687 63.3257 88.2701 61.3329 88.6344 59.324C88.912 57.7928 89.176 55.1662 87.13 54.7767C85.6419 54.4935 84.0014 55.3976 82.7747 56.1296C82.0271 56.5755 81.2753 57.0188 80.5633 57.5204C79.7902 58.0643 79.1221 58.8341 78.2831 59.2706C78.742 59.0319 77.2278 59.7504 77.4596 59.5483C77.351 59.6427 77.4447 59.9311 77.373 60.0613C77.2795 60.2306 76.9547 60.3979 76.809 60.5074C76.424 60.7965 75.8091 61.0923 75.634 61.5698C73.1926 59.828 78.0478 56.7359 79.2923 55.9484C81.7611 54.3865 86.0568 51.3347 88.9155 53.5477ZM95.5012 36.6084C95.4779 35.3542 96.4993 33.642 97.1891 32.6193C97.5266 32.1186 98.0657 32.1386 98.2635 31.5481C98.3776 31.2081 98.2279 30.8516 98.2618 30.5102C98.3077 30.0486 98.5079 29.6783 98.7389 29.2815C100.827 25.6942 103.364 22.5191 106.066 19.3893C107.398 17.8465 108.661 16.2443 110.098 14.7949C110.698 14.1895 112.311 12.0134 113.234 12.231C113.723 12.3463 114.007 13.0921 114.228 13.4726C114.593 14.102 114.994 14.6915 115.437 15.2703C116.607 16.7983 117.957 18.1395 119.551 19.2226C120.546 19.8994 121.552 20.5572 122.525 21.2663C123.326 21.8498 124.538 22.517 125.11 23.3363C125.682 24.1559 124.842 24.8499 124.382 25.5304C123.668 26.5887 123.012 27.6852 122.295 28.7424C122.01 28.5375 122.084 28.1215 121.888 27.8591C121.715 27.6266 121.47 27.5319 121.231 27.3883C120.773 27.1136 120.323 26.7777 119.909 27.238C119.184 28.0436 120.18 29.9477 121.254 29.7388C121.381 30.5338 119.236 31.8432 118.699 32.2808C117.049 33.623 115.347 34.7899 113.168 34.9113C112.286 34.9604 111.369 34.8935 110.531 34.5984C110.129 34.457 109.686 34.2629 109.378 33.9548C109.009 33.5859 108.916 33.0369 108.558 32.6717C108.248 32.3549 107.822 32.306 107.513 31.988C107.202 31.6698 107.049 31.1671 106.923 30.7549C106.677 29.9496 106.631 29.1002 106.394 28.2931C106.252 27.8076 106.135 27.1585 105.671 27.625C104.997 28.3027 105.336 30.4337 105.508 31.2457C105.755 32.4041 106.334 33.338 106.94 34.3346C107.597 35.4159 107.839 36.4187 107.957 37.6697C108.178 40.0115 108.85 42.2587 109.895 44.3656C110.335 45.2528 110.863 46.087 111.338 46.9537C111.56 47.3581 112.057 48.7379 112.661 48.7305C113.626 48.7186 112.252 45.9057 112.061 45.4335C111.004 42.8182 109.995 40.0692 109.769 37.2373C111.283 37.6275 112.934 37.9978 114.503 37.7506C113.49 40.0147 114.548 42.269 114.418 44.5995C114.354 45.7683 114.307 46.8465 114.331 48.0118C114.353 49.0336 113.891 50.055 113.492 50.9791C112.7 52.8141 111.703 55.0778 110.231 56.4834C109.001 57.6585 107.356 57.7504 105.748 57.4798C102.092 56.8639 99.6897 54.0534 98.1553 50.8613C97.1694 48.8107 96.4159 46.6217 95.948 44.3947C95.4064 41.8174 95.5493 39.2226 95.5012 36.6084ZM100.249 19.2388C96.8374 16.7701 101.796 13.9666 104.319 14.3483C104.911 14.4377 106.001 14.6824 105.945 15.455C105.9 16.0864 104.846 16.7902 104.442 17.18C103.289 18.2921 102.115 20.5885 100.249 19.2388ZM125.071 74.0933C124.954 73.9884 123.999 74.2459 124.377 73.6809C124.691 73.2114 125.563 73.7998 125.879 73.9206C125.618 74.1009 125.391 74.3802 125.071 74.0933ZM110.863 103.952C110.57 103.988 110.263 103.197 111.321 103.788C111.168 103.842 111.016 103.897 110.863 103.952ZM110.833 116.842C110.869 117.196 110.978 117.43 110.726 117.688C110.513 117.426 110.486 117.056 110.833 116.842ZM111.262 122.168C111.231 122.361 111.2 122.554 111.169 122.747C110.925 122.623 110.681 122.5 110.437 122.376C110.712 122.307 110.987 122.237 111.262 122.168ZM111.561 117.677C111.925 117.813 111.755 117.378 112.02 117.317C112.114 117.77 111.998 118.158 111.738 118.531C111.713 118.443 111.58 117.684 111.561 117.677ZM120.859 85.5375C120.349 85.4724 120.272 86.0117 119.891 86.2209C119.646 86.3561 118.898 86.2546 118.758 86.5133C118.942 86.5664 119.127 86.6198 119.311 86.673C118.889 86.9003 118.467 87.1278 118.046 87.3551C119.06 87.3551 120.117 86.8705 121.125 87.0128C121.551 87.073 121.863 87.2169 122.13 87.5633C122.293 87.7737 122.435 88.1121 122.461 88.3696C122.489 88.6482 122.272 88.8407 122.311 88.9735C122.765 88.9859 122.711 89.7308 122.609 90.0344C122.388 90.6926 121.51 91.7234 120.723 91.306C121.052 91.7731 120.968 92.0398 120.481 92.3109C120.526 92.1564 120.558 91.8863 120.309 91.9131C120.245 92.172 120.27 92.5826 120.058 92.7778C119.822 92.9962 119.611 92.7409 119.384 92.883C119.116 93.0516 119.196 93.3162 118.985 93.4991C118.706 93.7406 118.667 93.5689 118.333 93.6159C117.828 93.6874 118.15 93.3735 117.745 93.7827C117.605 93.9239 117.629 94.2911 117.402 94.4978C116.966 94.8944 115.804 95.3077 115.386 94.7991C114.383 96.3898 111.374 96.7715 109.974 95.5158C107.74 93.513 111.905 89.44 113.28 88.1492C114.66 86.8538 116.192 85.7347 117.743 84.6547C118.624 84.0411 119.529 83.4841 120.452 82.9375C121.022 82.6 121.737 81.9839 122.437 82.043C123.065 82.0961 123.601 82.5832 124.262 82.6797C124.74 82.7494 125.669 82.8644 125.066 83.5128C124.784 83.8157 123.676 84.3055 123.299 84.3793C123.077 84.4226 122.844 84.3397 122.624 84.3846C122.253 84.4609 121.997 84.7745 121.593 84.7346C121.721 85.3347 121.487 85.6172 120.859 85.5375ZM127.469 63.2604C127.469 63.7299 126.613 63.6128 126.434 63.4534C126.139 63.191 126.129 62.4065 126.019 62.0498C126.517 62.1751 127.469 62.6338 127.469 63.2604ZM120.566 47.7726C122.366 46.2932 124.259 44.9368 126.259 43.7422C126.976 43.3144 127.987 42.4516 128.877 42.5593C129.251 42.6046 130.022 43.0333 129.741 43.506C129.689 43.5944 129.273 43.6299 129.145 43.6941C128.999 43.7667 128.885 43.967 128.75 44.0659C127.816 44.7517 126.693 45.173 125.755 45.8753C124.984 46.452 124.265 47.0971 123.436 47.592C122.64 48.0665 121.808 48.3669 121.052 48.8925C121.067 48.882 120.069 49.2408 120.265 49.3061C119.389 49.013 120.314 47.9799 120.566 47.7726ZM132.567 47.2216C133.636 46.7954 134.683 46.2783 135.802 45.9919C136.361 45.8489 136.934 45.7415 137.512 45.8059C137.611 45.6338 137.741 45.5958 137.905 45.6918C138.033 45.8879 138.201 46.0384 138.41 46.1436C138.729 46.3887 139.903 46.7093 139.668 47.2507C139.513 47.6088 138.336 47.6386 138.013 47.719C137.039 47.9616 136.131 48.5074 135.127 48.6414C135.033 48.654 134.722 48.5406 134.722 48.5406C134.331 48.6261 134.005 49.0323 133.668 49.227C132.944 49.6461 131.904 49.7164 131.384 50.4397C133.068 51.581 134.529 50.4491 136.009 49.5874C136.895 49.0715 137.847 48.6991 138.816 48.3683C139.322 48.1955 139.833 48.0159 140.347 47.8642C140.559 47.7868 140.777 47.7311 141.001 47.697C141.21 47.6555 141.359 47.7313 141.449 47.9247C142.069 47.9041 142.123 47.5148 142.496 48.2409C143.023 49.2646 142.217 49.2126 141.46 49.3384C140.41 49.5125 139.343 49.9048 138.308 50.1648C138.07 50.2248 135.977 50.7099 135.975 50.7271C135.88 51.3874 141.884 50.7759 142.4 50.6769C143.309 50.5018 144.285 50.0049 145.227 50.1247C145.95 50.2166 147.597 51.2774 146.444 51.9822C146.216 50.8952 145.437 51.7929 145.03 52.1597C144.488 52.648 143.711 52.601 142.968 52.7923C141.951 53.0535 139.348 54.0337 138.626 52.7841C138.854 53.8792 134.705 53.3227 134.134 53.2865C133.578 53.251 132.861 53.3692 132.323 53.2107C131.973 53.1073 131.778 52.8794 131.448 52.8281C131.367 52.9151 131.27 52.9745 131.157 53.0058C130.99 52.9213 130.839 52.8136 130.704 52.6833C129.593 52.1726 127.874 51.8903 128.491 50.2633C129.073 48.7289 131.155 47.7847 132.567 47.2216ZM142.982 48.1699C143.01 48.0743 143.038 47.9788 143.065 47.883C143.069 48.1761 143.768 48.3012 143.687 48.6808C143.508 49.5214 142.702 48.2583 142.632 48.1206C142.749 48.1371 142.866 48.1534 142.982 48.1699ZM147.249 49.5666C147.33 49.9109 148.259 50.6441 148.029 50.8132C147.663 50.3151 146.65 50.5412 147.249 49.5666ZM131.574 80.9877C131.914 80.3129 132.942 81.462 132.834 80.31C133.393 80.3606 133.044 80.7861 133.714 80.5991C133.965 80.529 134.135 80.2506 134.441 80.1865C134.523 80.1693 134.875 80.1972 134.997 80.1936C135.4 80.1812 136.979 80.1363 135.892 79.6077C136.501 79.2054 136.576 79.4095 137.125 79.7782C136.984 79.0161 137.792 79.4487 138.168 79.5438C137.9 79.1092 138.566 78.6468 138.782 78.3531C138.704 78.8056 138.745 79.3121 139.4 79.0228C139.563 78.9508 139.526 78.631 139.656 78.5787C139.893 78.4832 140.025 78.6571 140.11 78.6472C140.194 78.6378 140.37 78.6848 140.546 78.6186C140.774 78.5327 140.664 78.2261 140.954 78.1805C141.142 78.151 141.28 78.4282 141.51 78.4305C141.628 78.4316 141.826 78.3116 141.915 78.318C141.931 78.3192 142.044 78.0479 142.182 78.0412C142.384 78.0314 142.466 78.5728 142.54 78.6779C142.894 79.1797 143.364 79.5069 143.907 79.7745C142.925 80.6745 140.945 80.5792 139.711 80.8825C139.042 81.047 138.472 81.2842 137.86 81.5898C137.713 81.6858 137.586 81.8036 137.479 81.9431C137.393 81.8856 137.306 81.8281 137.219 81.7706C136.884 81.7912 136.567 81.6253 136.19 81.689C135.024 81.8856 134.112 82.7588 132.927 82.9533C132.395 83.0408 131.957 83.1629 131.611 82.7015C131.306 82.2969 131.357 81.418 131.574 80.9877ZM129.976 75.6096C130.24 75.833 129.922 76.5602 130.433 76.4812C130.796 76.425 130.724 75.8621 131.009 75.7427C131.383 75.5862 131.609 75.9576 131.961 75.9233C132.617 75.8587 132.579 75.2859 132.025 75.0343C132.601 74.8822 132.786 75.5636 133.296 75.5574C133.967 75.5494 133.807 74.7587 134.377 74.6276C134.624 74.5708 134.541 74.9335 134.702 74.9786C135.022 75.0687 135.246 74.914 135.529 74.7779C135.783 74.6563 135.964 74.4212 136.241 74.3414C136.368 74.305 136.688 74.3717 136.781 74.3041C136.968 74.168 137.135 73.6378 137.319 73.5677C137.281 73.5819 137.884 73.8839 137.97 73.9123C137.917 74.1362 137.795 74.1627 137.602 73.9923C137.602 74.4975 139.006 74.6549 138.718 74.0305C139.477 74.3449 138.912 74.5066 138.836 74.9454C138.806 75.1218 138.703 75.117 138.734 75.3035C138.748 75.3894 139.146 75.3154 139.141 75.4325C139.107 76.1865 136.704 76.4184 136.249 76.4848C135.306 76.6225 134.414 76.8542 133.506 77.1394C132.829 77.3518 131.663 77.9601 130.943 77.9223C129.907 77.868 129.773 76.5171 129.976 75.6096ZM127.662 67.9154C127.41 67.0766 128.22 65.344 129.274 65.5605C129.534 65.6137 129.598 65.8286 129.799 65.9239C130.08 66.0573 130.537 65.9872 130.78 66.1249C131.326 66.4339 131.051 67.2214 131.598 67.506C130.734 67.7154 128.063 69.2486 127.662 67.9154ZM128.662 71.1744C129.034 70.9743 129.637 70.9487 129.891 70.564C130.017 70.6515 130.256 71.1828 130.483 71.1015C130.589 71.0637 130.698 70.7757 130.69 70.7759C130.892 70.7702 130.932 70.4969 131.241 70.5276C131.524 70.556 131.841 70.8964 132.093 71.0234C132.05 70.1793 132.266 70.0987 132.951 69.6468C133.101 69.5479 133.226 69.1762 133.365 69.0259C133.232 69.9117 133.566 69.9165 134.273 70.0496C135.16 70.2164 135.712 70.6925 136.068 71.5492C135.312 71.4019 134.337 71.5792 134.04 72.3914C133.437 71.2896 131.245 72.81 130.536 73.1214C130.009 73.3526 129.397 73.6633 128.956 73.1246C128.645 72.7452 128.823 72.2888 128.83 71.9518C128.832 71.8459 128.941 71.8397 128.931 71.6821C128.918 71.4809 128.656 71.4005 128.662 71.1744ZM136.729 88.5004C136.529 88.576 135.502 88.6184 135.496 88.2782C135.49 87.9776 137.308 88.2805 136.729 88.5004ZM135.061 87.3997C134.283 87.8788 133.414 86.1907 133.128 85.7045C133.943 85.8088 134.341 85.1269 134.822 84.6086C135.278 85.6097 135.972 85.0806 136.702 84.7463C137.562 84.352 138.506 84.3491 139.387 84.0326C139.662 83.9339 139.916 83.787 140.185 83.6741C140.401 83.5932 140.616 83.5103 140.831 83.4252C140.983 83.2878 141.038 83.1185 140.993 82.9178C140.921 82.7491 140.97 82.6426 141.141 82.5986C141.344 82.6591 141.551 82.6944 141.763 82.7038C142.103 82.6364 142.591 82.3159 142.181 81.9704C142.62 81.5712 143.06 81.9681 143.484 82.1429C143.383 81.8563 143.283 81.5696 143.182 81.283C143.392 81.3721 144.015 82.2428 144.079 82.238C144.482 82.2077 144.44 81.6672 144.671 81.4491C144.805 81.6139 144.843 82.8421 145.368 82.4284C145.593 82.2515 145.109 81.6489 144.99 81.5117C145.591 81.6473 146.115 82.3644 146.278 82.9212C145.992 82.9624 145.729 82.9052 145.487 82.7489C145.332 83.5242 146.767 83.2101 146.999 83.6152C147.454 84.4082 144.494 84.959 144.109 85.0325C143.337 85.1796 142.426 85.2344 141.719 85.5764C141.041 85.9038 140.881 85.9975 140.089 86.0589C139.185 86.1291 138.303 86.4269 137.429 86.6588C136.67 86.8599 135.733 86.985 135.061 87.3997ZM151.58 59.0142C152.294 58.7574 154.697 57.4246 155.309 58.0173C155.245 57.9545 155.751 58.9998 155.745 58.934C155.789 59.4777 155.776 59.6965 155.106 59.957C154.627 60.1435 154.21 59.7472 153.778 59.9046C153.305 60.0775 153.636 60.3836 153.392 60.5974C153.125 60.8318 152.61 60.9331 152.278 61.0357C151.464 61.2871 150.644 61.4972 149.834 61.768C148.186 62.319 146.441 62.8318 144.747 63.2215C143.481 63.5127 141.333 64.2365 140.167 63.3816C140.053 63.8676 139.775 63.8012 139.389 63.872C139.085 63.9274 138.537 64.0775 138.268 64.0853C137.82 64.0983 136.573 63.9808 136.745 63.3519C136.697 63.5251 137.714 62.9321 137.538 62.8952C137.97 62.9862 137.83 62.7688 138.184 62.6478C138.646 62.4899 139.129 62.4984 139.601 62.3311C140.79 61.9096 141.788 61.3624 143.043 61.0983C145.91 60.495 148.814 60.0097 151.58 59.0142ZM36.6326 123.99C36.4003 123.996 36.2195 123.336 36.9263 123.807C36.8285 123.868 36.7307 123.929 36.6326 123.99ZM31.049 123.136C30.7331 123.217 30.607 123.04 30.6714 122.607C31.112 122.433 31.2378 122.609 31.049 123.136ZM26.7384 122.252C26.6575 121.865 26.9439 121.778 27.2035 121.605C27.1774 122.117 27.1774 122.117 26.7384 122.252ZM15.8925 119.073C15.4555 118.977 14.8734 118.55 14.7732 119.267C14.7001 119.101 14.3271 118.32 14.4873 118.139C14.5709 118.044 14.8876 118.482 14.8539 118.438C15.2363 117.665 15.8955 118.598 16.2639 118.874C16.1402 118.941 16.0162 119.007 15.8925 119.073ZM129.492 33.5903C129.643 33.2713 129.821 33.17 130.025 33.2867C129.704 34.0327 128.616 34.4371 129.492 33.5903ZM137.051 26.5875C137.32 27.0927 136.915 27.3063 136.626 27.7262C136.795 27.2733 136.912 26.9594 137.051 26.5875ZM169.901 75.9036C170.873 75.9033 172.944 75.3903 173.53 76.5013C173.918 75.7464 174.358 77.1621 174.695 77.3892C174.733 77.4148 174.975 77.2295 175.088 77.2977C175.258 77.4006 175.405 77.6808 175.502 77.8474C175.795 78.3496 175.922 78.9467 176.084 79.4993C174.387 79.4993 172.646 79.1041 170.95 78.9604C169.837 78.8661 168.745 78.8633 167.63 78.9233C167.409 78.9352 166.969 78.8622 166.779 78.9039C166.587 78.9462 166.238 79.3383 166.026 79.2753C166.356 79.8941 170.578 81.3923 170.9 80.707C170.518 80.4761 169.671 80.2987 169.671 79.7406C169.672 79.1153 170.467 79.1165 170.888 79.1348C171.809 79.1751 173.351 79.4817 173.729 80.4394C173.891 80.85 173.94 81.8838 173.763 82.2801C173.648 82.536 173.453 82.8438 173.146 82.8958C173.019 82.9171 172.837 82.7491 172.818 82.7533C172.186 82.8873 171.017 83.3948 170.327 82.6792C169.83 83.3224 167.437 82.6199 166.704 82.3773C165.422 81.9529 163.657 81.3703 162.879 80.1743C161.93 78.7167 163.859 77.4847 164.967 76.8922C166.481 76.0825 168.211 75.9043 169.901 75.9036ZM176.37 79.2739C176.668 79.358 176.966 79.4423 177.263 79.5264C177.184 80.0488 176.008 79.6354 176.37 79.2739ZM185.376 98.2624C185.468 96.1694 184.863 94.3262 184.513 92.3019C184.427 91.8002 184.515 90.9229 184.134 90.5102C183.77 90.1157 182.957 90.4365 182.925 89.739C182.566 90.159 182.602 90.2467 182.16 89.7638C182.241 89.9709 182.253 90.1814 182.195 90.3959C181.921 90.2387 180.927 89.7168 181.011 90.4305C180.194 90.2497 180.43 89.7386 179.964 89.3484C179.898 89.2929 179.632 89.4897 179.528 89.4059C179.341 89.254 179.248 89.1161 179.09 88.9204C178.889 89.1633 178.615 89.3388 178.37 89.5308C178.227 89.2198 177.949 88.9916 177.615 88.916C177.927 89.5695 178.699 90.4158 177.64 90.7877C177.008 91.0095 175.973 90.7375 175.303 90.7893C172.822 90.9818 170.104 90.4408 167.705 89.8497C165.241 89.2425 162.748 88.3854 160.532 87.1326C160.059 86.8654 159.762 86.5493 159.355 86.2179C158.959 85.8958 158.672 85.845 158.196 85.639C157.341 85.2683 156.558 84.6737 155.907 84.0111C154.507 82.5862 153.207 80.7228 153.597 78.6367C153.985 76.5575 155.414 74.9326 156.944 73.5634C158.75 71.9463 160.789 70.5961 162.953 69.5075C163.921 69.0211 166.397 67.1932 167.353 68.2627C167.964 68.946 167.62 69.8178 166.785 69.9697C166.579 70.0072 166.364 69.8691 166.156 69.9637C165.856 70.1003 165.961 70.2616 165.837 70.3754C165.622 70.5732 165.394 70.8816 165.072 71.0529C163.95 71.6512 162.865 72.1252 161.793 72.8538C161.299 73.1895 160.823 73.3338 160.387 73.6268C159.953 73.918 159.855 74.4001 159.272 74.1027C159.48 74.9504 158.233 75.8582 157.745 76.3776C156.988 77.1818 156.081 78.2083 156.434 79.3981C157.125 81.7273 160.248 83.4963 162.247 84.5202C164.741 85.7978 167.491 86.8148 170.268 87.2357C171.649 87.4449 173.076 87.5741 174.467 87.7068C175.55 87.8101 177.212 87.4318 177.991 88.4072C178.015 87.2698 181.568 87.3702 182.324 87.2247C180.808 82.0432 177.831 77.4364 174.649 73.1322C173.088 71.0193 171.554 68.8463 169.774 66.9094C167.825 64.7889 165.599 62.8939 163.483 60.9427C159.334 57.1157 154.641 53.7003 149.866 50.6915C145.102 47.6899 140.168 44.7356 134.948 42.5955C128.987 40.1512 122.71 38.5435 116.427 37.1743C117.28 36.0883 118.666 35.5586 119.757 34.764C120.14 34.4859 120.656 33.8182 121.152 33.727C121.69 33.6281 122.113 34.2063 122.496 34.4966C123.594 35.3297 124.353 34.9759 125.611 34.9258C126.364 34.8958 128.146 35.3148 128.463 34.2968C128.885 34.8586 128.273 35.3091 127.96 35.721C128.188 36.0391 128.372 35.7091 128.597 35.6594C128.667 35.6019 128.736 35.5442 128.805 35.4866C128.917 35.3249 129.018 35.324 129.107 35.4834C129.242 35.6855 129.377 35.6408 129.513 35.3492C129.55 35.3258 129.587 35.3022 129.625 35.2788C129.787 35.1922 129.944 35.0552 130.096 34.9473C131.239 34.1305 132.257 33.4347 133.519 32.833C134.579 32.328 134.009 31.3619 134.707 30.6795C134.866 30.5251 135.132 30.6026 135.301 30.4717C135.466 30.3432 135.491 30.1975 135.612 30.0598C135.902 29.7287 135.557 29.3445 136.297 29.7498L136.03 28.2466C137.482 29.6552 137.476 25.6016 137.675 25.0018C137.648 25.0811 137.805 24.4673 137.805 24.4725C137.847 23.2562 138.013 22.3745 136.589 22.3039C137.128 21.9646 137.293 22.6272 137.542 21.9413C137.667 21.5976 137.277 21.0069 137.898 21.2285C138.029 20.498 137.9 19.9069 137.737 19.1971C137.57 18.4706 137.668 17.9858 137.676 17.2593C137.684 16.4351 137.298 15.6069 137.175 14.7953C137.078 14.1598 137.178 13.1574 136.356 13.3908C136.241 13.2101 136.646 12.654 136.63 12.3791C136.604 11.952 136.141 11.518 136.01 11.1079C135.816 11.3073 135.544 11.3737 135.281 11.2836C135.528 10.7264 135.297 10.5392 135.06 10.0588C134.925 9.78362 135.007 9.47981 134.717 9.28263C134.551 9.16945 134.268 9.36007 134.137 9.22742C133.858 8.94331 133.961 8.56641 133.769 8.19204C133.529 7.72258 132.979 7.36401 132.6 7.01163C130.469 5.03091 128.154 3.51713 125.319 2.74318C122.46 1.96235 119.126 1.68259 116.276 2.58325C115.137 2.9432 114.125 2.90631 113.1 3.57854C112.768 3.79666 112.732 3.73823 112.563 4.10184C112.524 4.18661 112.878 4.41229 112.661 4.55091C112.426 4.70144 112.166 4.39534 112.046 4.14125C110.562 5.21489 109.173 6.64619 108.328 8.28735C107.488 9.91811 107.411 11.834 107.091 13.6062C105.612 11.9172 103.613 11.1075 101.439 11.9194C99.5435 12.627 98.0751 14.1822 97.7044 16.1971C97.4783 17.4254 97.7253 18.6692 98.2832 19.7775C98.5244 20.2563 98.8165 20.7865 99.2601 21.1089C99.6109 21.3637 100.212 21.3279 100.377 21.7875C100.63 22.4916 99.1678 24.0122 98.7881 24.6286C98.1015 25.7439 97.4634 26.8957 96.9777 28.1139C95.2361 25.6539 93.5691 22.967 91.5888 20.6988C89.7199 18.5579 87.492 16.6379 85.3069 14.8283C80.7718 11.0726 76.0561 7.54432 70.983 4.55228C66.2593 1.76622 60.5533 0.219453 55.0481 0.766356C49.6691 1.30089 45.551 4.70281 42.0856 8.62644C35.4224 16.1705 31.3414 26.9232 30.9427 36.9656C30.8229 39.9824 31.0527 42.9598 31.7978 45.8858C32.1527 47.2791 32.1011 48.6494 32.3073 50.0606C32.5401 51.6525 32.9427 53.2386 33.3319 54.798C34.8148 60.7383 36.7041 66.6741 38.8241 72.4176C39.9264 75.4043 41.2601 78.3242 43.0644 80.9579C43.8977 82.1745 44.9773 83.1263 45.874 84.2815C46.744 85.4018 46.9738 86.777 47.1651 88.1517C47.6238 91.448 47.9281 94.7583 48.2039 98.0738C48.321 99.479 48.4578 100.872 48.6438 102.267C48.806 103.484 48.398 103.424 47.3745 103.837C47.5821 102.744 42.6923 103.488 42.2306 103.562C41.7282 103.643 41.1961 103.645 40.8005 103.709C40.358 103.781 39.925 103.885 39.4155 103.871C38.6665 103.849 37.264 103.658 36.9781 104.614C36.7813 103.506 35.4813 104.718 36.4431 104.512C35.4559 104.622 34.4484 104.438 33.4492 104.532C32.3041 104.638 31.1491 104.739 30.012 104.911C29.2204 105.031 28.465 105.336 27.6721 105.425C26.6573 105.538 25.5983 105.527 24.5737 105.618C20.7944 105.951 16.8772 106.775 13.2036 107.719C12.3714 107.933 11.4153 108.085 10.6203 108.428C10.4074 108.52 10.2159 108.725 10.012 108.804C9.67012 108.936 9.71686 108.845 9.41328 108.905C7.59432 109.269 5.71785 109.863 3.89912 110.329C2.89032 110.588 1.24938 110.821 0.426483 111.525C0.0576043 111.84 -0.264762 112.399 0.326359 112.758C0.798569 113.044 1.47254 112.587 1.85471 112.34C1.51424 113.227 0.872116 113.67 1.21891 114.679C1.4927 115.477 2.11086 116.46 3.06192 115.945C3.18931 116.242 3.24086 116.831 3.61593 116.94C3.95296 117.038 4.19697 116.611 4.52713 116.711C4.64535 116.747 4.60044 116.97 4.7063 117.029C4.88867 117.129 5.07357 117.172 5.28253 117.243C5.46215 117.304 5.7513 117.429 5.93872 117.442C6.05763 117.45 6.33692 117.247 6.33692 117.247C6.61003 117.289 6.75689 117.811 6.95347 117.962C7.20871 118.158 7.4195 118.203 7.73912 118.274C8.40356 118.421 9.26 118.674 9.69853 117.994C9.59817 118.48 10.2587 118.432 10.5502 118.494C10.5178 118.238 10.3765 118.004 10.1584 117.863C10.81 117.906 10.5458 118.554 11.0274 118.725C11.3706 118.847 11.3317 118.537 11.5942 118.503C11.9402 118.458 12.2028 118.709 12.743 118.477C12.8601 118.998 12.903 119.522 13.542 119.6C13.917 119.646 14.7916 118.968 14.7421 119.532C15.58 119.286 15.898 119.453 16.3358 120.191C16.4098 119.738 16.7679 119.869 17.0965 119.841C17.6173 119.797 17.6306 119.839 18.0343 119.544C18.0711 119.517 18.3887 118.789 18.5298 119.242C18.5933 119.444 18.1738 119.921 18.0184 120.042C18.2114 120.139 18.8435 120.481 19.0866 120.418C19.2969 120.364 19.2976 120.004 19.5503 119.986C19.4885 120.193 19.4268 120.399 19.3647 120.606C19.8564 120.678 20.2672 120.349 20.6556 120.108C21.0258 121.044 22.0841 120.516 22.6597 121.221C22.9642 121.594 22.9784 121.877 23.5585 121.974C24.1521 122.074 24.6706 121.813 25.1751 122.303C25.0152 121.999 24.6168 121.747 25.0127 121.421C25.2821 121.803 25.4212 122.264 25.7319 122.619C25.7747 122.438 25.8176 122.258 25.8604 122.077C26.6704 122.943 27.6899 122.95 28.7274 123.431V122.797C29.4702 123.93 29.5098 123.213 30.3972 122.75C30.3369 123.083 30.2764 123.417 30.2162 123.75C30.8547 123.702 31.4513 124.458 31.9756 123.816C32.2922 124.347 32.676 124.085 33.1949 124.254C33.49 124.35 33.7098 124.64 33.9968 124.746C34.4273 124.903 34.5559 124.896 34.9612 125.033C35.3216 125.155 35.5264 125.392 35.9776 125.468C36.2706 125.518 36.5364 125.514 36.8168 125.501C36.9252 125.495 36.8894 125.252 37.1302 125.309C37.5026 125.397 37.7798 125.864 38.0478 126.103C38.4511 125.089 39.5802 126.447 40.1259 126.628C40.1782 126.368 40.1688 126.055 40.3569 125.841C40.5778 126.325 40.6621 126.732 41.1205 127.044C41.3852 127.223 41.7738 127.352 42.0794 127.418C42.2725 127.459 42.6235 127.41 42.745 127.469C42.9521 127.571 43.0284 127.842 43.2376 127.867C43.3606 127.882 43.543 127.558 43.6351 127.584C44.0567 127.699 44.2908 128.211 44.7165 128.488C45.9833 129.312 47.5775 129.392 48.9889 129.573C49.3431 129.618 49.3944 129.521 49.6822 129.729C49.8357 129.84 49.766 130.178 49.9548 130.272C50.6662 130.629 50.6667 129.868 50.8159 129.396C51.0512 129.706 51.0917 130.116 51.4136 130.363C51.5893 130.358 51.7653 130.362 51.9408 130.375C52.0398 130.488 52.1049 130.618 52.1351 130.766C52.5613 131.054 53.044 130.954 53.4841 131.17C53.6285 131.24 53.8842 131.669 54.062 131.792C54.3802 132.012 54.8724 132.13 55.236 132.226C55.9985 132.426 57.0918 132.16 57.5455 132.956C58.1478 132.31 57.9148 133.081 58.3238 133.243C58.5653 133.339 58.9284 132.958 59.1963 132.996C59.6786 133.064 59.8522 133.586 60.0066 133.966C60.3004 133.9 60.0988 133.069 60.0905 132.887C60.4555 132.844 60.5366 133.805 60.5996 134.017C61.1758 133.739 60.23 132.876 60.8496 132.599C60.7928 133.334 61.3791 133.94 60.332 134.045C60.4766 134.489 63.8538 134.981 64.0884 134.59C64.1404 135.313 64.6261 134.637 64.8053 134.39C64.8254 134.812 64.6818 135.41 65.1551 135.606C65.4768 135.74 66.2022 135.395 66.3285 135.08C66.4726 135.561 66.7141 135.546 67.0142 135.852C67.2204 136.062 67.3563 136.426 67.5726 136.602C67.9705 136.926 68.7108 136.876 69.1745 136.804C70.0818 136.662 69.9746 136.489 70.2979 137.432C70.371 137.074 70.6001 136.325 70.9997 136.882C71.254 137.235 70.7126 138.014 70.5561 138.325C70.9057 138.133 71.2529 137.905 71.6506 137.822C71.6728 137.945 71.6932 138.205 71.6346 138.318C71.6465 138.296 72.0708 138.58 72.2282 138.659C72.1904 138.64 72.3526 137.931 72.348 137.955C72.9078 138.3 72.5194 138.961 73.0152 139.301C73.1433 139.39 73.4439 139.287 73.5988 139.34C73.8685 139.434 74.1017 139.687 74.3414 139.834C74.15 139.578 74.1775 139.147 74.1906 138.851C74.3125 138.918 74.3996 139.17 74.5226 139.19C74.5691 139.198 75.0482 139.259 75.0482 139.259C75.5502 139.611 75.4468 139.655 75.0159 140.078C75.1698 140.32 75.8134 139.899 75.9876 139.829C76.024 139.924 76.0334 140.268 76.1019 140.329C76.1434 140.431 76.1851 140.532 76.2268 140.634C76.3553 140.538 76.4932 140.506 76.6403 140.538C76.7333 140.57 77.4594 140.866 77.5087 140.765C77.3499 140.713 77.2058 140.635 77.077 140.529C77.4961 140.152 77.7717 139.952 78.1578 140.496C78.2063 140.564 78.0393 140.81 78.0888 140.899C78.2732 141.232 78.6522 141.497 78.9095 141.768C79.016 141.394 78.7681 140.457 79.3597 140.491C79.8324 140.518 80.1919 141.663 80.0283 142.019C80.2161 141.814 81.3379 141.609 81.5496 141.674C82.1483 141.855 81.9803 142.409 82.7169 141.598C83.2192 141.944 82.7765 142.076 82.867 142.498C82.9997 142.526 83.1252 142.493 83.2441 142.4C83.1553 144.195 84.4802 142.823 85.3406 143.098C85.6783 143.205 85.7647 143.589 86.1271 143.701C86.3189 143.76 86.5322 143.62 86.7187 143.654C86.8681 143.633 87.0166 143.606 87.1641 143.575C87.3511 143.481 87.4388 143.586 87.4274 143.889C87.728 144.045 87.6143 144.106 87.9658 144.136C88.1922 144.156 88.4004 143.92 88.6577 143.96C89.1015 144.03 89.0429 144.371 89.3265 144.549C89.5817 144.709 89.8695 144.704 90.1839 144.673C90.344 144.657 90.7938 144.451 90.8479 144.45C91.1837 144.446 91.0016 144.374 91.4048 144.662C91.7187 144.887 91.8505 145.033 92.2359 145.137C92.6778 145.255 93.4619 145.514 93.7592 145.195C94.1609 145.797 94.4755 145.355 95.0056 145.395C95.2769 145.416 95.32 145.521 95.5615 145.563C95.9528 145.632 96.4411 145.573 96.8574 145.706C97.5133 145.917 97.5873 146.023 98.2577 146.051C98.3787 146.004 98.4997 145.957 98.6204 145.909C98.6566 146.111 98.7517 146.276 98.9059 146.404C99.281 146.482 99.5273 146.293 99.8366 146.086C100.067 146.803 100.815 146.866 101.455 146.961C102.487 147.113 103.474 147.196 104.469 147.535C105.31 147.822 106.152 148.143 106.961 148.51C107.672 148.833 108.344 149.316 109.149 149.089C110.973 148.576 112.741 146.703 114.267 145.628C116.075 144.354 118.024 143.305 119.913 142.16C127.433 137.602 135.377 133.746 142.791 129.019C146.839 126.438 150.595 123.371 154.942 121.283C154.323 123.84 153.27 126.436 153.46 129.113C153.537 130.192 153.854 131.466 154.691 132.22C155.726 133.151 156.878 132.558 157.867 131.893C159.987 130.467 161.401 128.387 162.987 126.434C164.864 124.124 166.32 121.642 167.698 119.008C168.028 119.472 167.777 120.248 167.782 120.762C167.788 121.418 167.965 122.05 168.269 122.635C169.054 124.146 170.548 124.513 171.898 123.477C174.495 121.485 176.003 117.937 177.395 115.08C178.189 116.557 179.315 118.416 181.222 117.361C182.795 116.491 183.719 114.546 184.2 112.899C185.605 108.09 185.16 103.192 185.376 98.2624Z" fill="#3A3A3A"/>
<path fill-rule="evenodd" clip-rule="evenodd" d="M182.99 69.3778C182.811 68.9421 182.732 69.0133 183.062 68.5908C183.319 68.844 183.113 69.0532 182.99 69.3778ZM190.941 95.7522C190.436 94.3179 190.748 92.7604 190.441 91.2892C190.301 90.6142 190.079 89.9594 189.999 89.2723C189.963 88.9673 189.692 87.5947 189.877 87.3786C189.307 87.034 189.306 86.779 189.174 86.1034C189.377 85.8882 189.351 85.7047 189.098 85.5523C188.932 85.3516 188.766 85.1507 188.6 84.95C189.326 85.3049 188.896 84.3965 188.822 83.8729C188.763 83.4591 188.724 83.0275 188.586 82.6309C188.416 82.1433 188.039 81.8968 188.824 81.8968C188.566 81.6028 188.179 81.2995 188.05 80.9395C187.865 80.4215 188.171 79.7369 187.793 79.2794C187.582 79.0241 186.497 78.9242 186.688 78.373C186.784 78.0921 187.224 78.3017 187.36 78.1049C187.895 77.3314 186.316 77.0109 186.238 76.6819C186.138 76.2552 186.709 76.1599 186.744 75.761C186.778 75.3706 186.171 74.7291 186.01 74.3799C185.792 74.4331 185.552 74.7788 185.302 74.6136C185.255 74.5824 185.326 73.2309 185.269 73.0515C185.213 72.8751 185.099 72.4072 185.058 72.3206C184.896 71.9767 184.433 71.8092 184.359 71.403C184.315 71.1606 185.265 70.7935 184.175 70.7821C184.567 70.0924 183.85 69.6734 183.589 69.0841C183.254 68.3264 183.056 67.508 182.711 66.7464C182.376 66.0061 182.002 65.3037 181.519 64.6491C181.081 64.0564 180.892 63.4863 180.543 62.8604C180.473 62.8054 180.403 62.7504 180.333 62.6954C180.042 62.7376 179.949 62.6049 180.053 62.2972C179.83 61.967 179.664 61.6147 179.468 61.2698C179.239 60.8691 178.931 60.5424 178.695 60.1527C178.382 59.636 178.289 59.0534 177.935 58.5351C177.5 57.8975 177.011 57.3352 176.608 56.6738C176.102 55.845 175.542 55.33 174.906 54.6882C174.604 54.3826 174.567 53.6192 174.196 53.1852C173.792 52.7125 173.393 52.5845 173.113 51.964C172.749 51.1568 172.215 50.7715 171.694 50.0738C171.265 49.4983 171.055 48.8368 170.582 48.2801C170.176 47.8019 169.714 47.365 169.28 46.9115C168.732 46.339 168.327 45.6431 167.757 45.0988C167.839 45.1774 167.26 44.7187 167.289 44.7333C167.161 44.668 166.748 44.6156 166.808 44.6511C165.947 44.145 164.868 42.2925 163.573 43.2741C162.891 43.7903 163.218 44.737 163.694 45.2511C163.898 45.472 164.96 46.5608 165.189 46.1016C165.437 46.4526 166.2 48.1495 166.834 47.6633C166.77 48.2432 167.106 48.0507 167.327 48.4427C167.473 48.7014 167.402 48.8283 167.509 49.232C167.801 50.3419 168.917 51.4258 169.512 52.3936C170.992 54.8023 172.624 57.0869 174.106 59.4983C175.517 61.7966 177.098 63.9773 178.452 66.3065C179.993 68.9551 181.912 71.4552 183.072 74.3105C183.111 74.4065 183.434 74.5584 183.514 74.7025C183.653 74.9529 183.623 75.386 183.713 75.6696C184.025 76.653 184.529 77.621 185.104 78.4355C185.609 79.1501 185.646 80.1213 185.993 80.9597C186.482 82.1412 186.999 83.3104 187.475 84.4979C188.215 86.3462 188.717 88.1178 189.228 90.0474C189.56 91.2979 189.824 92.5477 189.929 93.839C190.026 95.0266 190.05 96.2636 190.49 97.3878C190.789 96.925 191.142 96.3254 190.941 95.7522Z" fill="#3A3A3A"/>
<path fill-rule="evenodd" clip-rule="evenodd" d="M21.5916 121.199C21.0596 121.091 20.559 120.948 20.4463 120.337C20.369 120.625 20.2921 120.913 20.2148 121.201C20.8626 121.348 21.5105 121.494 22.1582 121.641C22.007 121.375 21.8966 121.26 21.5916 121.199Z" fill="#3A3A3A"/>
<path fill-rule="evenodd" clip-rule="evenodd" d="M23.0199 20.9503C23.0603 20.778 23.1125 20.6091 23.1769 20.4444C23.2207 20.605 23.4351 20.9523 23.3102 21.1038C23.1512 21.296 22.9904 21.1872 23.0199 20.9503ZM25.628 15.9881C25.8026 16.065 26.1804 16.0799 26.3971 16.145C25.8349 16.6287 25.7359 16.4864 25.0089 16.4303C24.9766 15.9409 25.1755 15.789 25.628 15.9881ZM20.7544 28.1033C20.8298 28.1054 20.9054 28.1072 20.9813 28.109C20.9858 27.896 20.9804 27.6831 20.9643 27.4705C21.7309 27.638 21.297 26.2983 21.0562 26.0206C21.804 26.0456 22.1683 23.6779 22.4052 23.2217C22.6156 22.8167 22.8538 22.6599 23.0076 22.166C23.1421 21.7336 23.2876 21.3446 23.4816 20.9356C23.9275 19.9953 24.5124 19.1414 24.4045 18.0455C24.7823 18.8678 25.1145 18.0469 25.3542 17.6537C25.7403 17.0202 26.6822 16.2119 26.7823 15.4595C26.8707 14.7971 26.3786 14.7621 26.6691 14.1478C26.9628 13.526 27.2043 13.5883 27.7189 13.3894C28.0612 13.257 28.1293 13.4178 28.3707 12.9857C28.5272 12.706 28.472 12.4975 28.6725 12.2681C28.7552 12.3401 28.8494 12.3698 28.9548 12.3575C29.1174 12.1428 29.2242 11.9036 29.2748 11.6399C29.4075 11.2838 29.4717 10.9569 29.6714 10.6178C29.8609 10.2966 30.1973 9.43714 30.3755 9.28224C30.5648 9.11773 31.6382 9.20136 31.6336 9.20732C32.0769 8.64965 31.2633 8.09404 32.3899 8.21157C32.1674 7.79733 32.949 7.28319 33.1758 7.0527C33.7424 6.47739 33.7875 6.21115 33.9071 5.4876C33.9678 5.11872 33.5715 5.16134 34.1028 5.07725C34.3225 5.04266 34.5333 5.32356 34.6919 5.28231C35.3918 5.10085 34.6596 5.13545 34.8527 4.8502C34.9136 4.7597 35.225 4.39449 35.222 4.39838C35.2069 4.41671 35.2921 4.0806 35.3627 3.99422C35.4965 3.98276 35.6283 3.95939 35.7577 3.92411C35.8235 3.79122 35.8817 3.65513 35.9321 3.51582C36.4386 3.09333 37.1966 2.90431 37.5469 2.44012C37.7735 2.13998 37.7057 1.84602 37.9985 1.54679C38.2773 1.26177 38.6462 1.4682 38.7014 0.824385C38.7717 0.0052922 37.8919 -0.359233 37.532 0.467421C36.556 -0.734755 32.4763 3.67597 32.005 4.2522C29.9578 6.7537 27.9457 9.31706 26.2665 12.0832C24.6304 14.7785 23.2876 17.6146 22.238 20.5873C21.7319 22.0207 21.4237 23.4476 21.1146 24.9303C21.0108 25.4268 20.2353 27.6393 20.5581 28.1345C20.6234 28.1242 20.6889 28.1136 20.7544 28.1033Z" fill="#3A3A3A"/>
<path fill-rule="evenodd" clip-rule="evenodd" d="M181.893 89.4469C182.237 89.2169 182.237 89.2169 182.298 88.7822C181.835 88.8665 181.835 88.8665 181.893 89.4469Z" fill="#3A3A3A"/>
<path fill-rule="evenodd" clip-rule="evenodd" d="M11.9265 118.689C11.9313 118.689 11.9347 118.69 11.9375 118.693C11.9295 118.683 11.9007 118.653 11.9265 118.689Z" fill="#3A3A3A"/>
<path fill-rule="evenodd" clip-rule="evenodd" d="M11.6943 118.921C11.8008 119.151 11.972 119.208 12.2079 119.092C12.301 119.225 11.401 118.263 11.6943 118.921Z" fill="#3A3A3A"/>
<path fill-rule="evenodd" clip-rule="evenodd" d="M27.2568 13.8262C26.7168 14.8849 27.3932 14.1149 27.3586 14.4588C27.3812 14.2329 27.4749 13.9109 27.2568 13.8262Z" fill="#3A3A3A"/>
<path fill-rule="evenodd" clip-rule="evenodd" d="M115.053 30.2133C115.287 32.1118 117.885 31.2139 118.469 30.0655C118.894 29.2295 119.969 25.9258 118.813 25.228C117.956 24.7106 117.773 26.9404 117.561 27.4385C117.207 28.2727 116.931 27.6816 116.144 27.8956C115.275 28.1318 114.957 29.4261 115.053 30.2133Z" fill="#3A3A3A"/>
<path fill-rule="evenodd" clip-rule="evenodd" d="M112.215 26.7385C113.143 26.9447 114.054 26.8384 114.713 26.1052C115.078 25.6992 115.564 24.8939 114.907 24.501C114.311 24.1451 113.635 24.9784 113.007 24.8061C112.154 24.5717 112.593 23.6567 112.301 23.0522C111.225 23.6718 110.624 26.3852 112.215 26.7385Z" fill="#3A3A3A"/>
<path fill-rule="evenodd" clip-rule="evenodd" d="M113.177 31.532C112.282 31.5302 112.275 32.6308 112.742 33.1026C113.189 33.5539 114.319 34.0108 114.925 33.6598C116.121 32.9669 113.901 31.6035 113.177 31.532Z" fill="#3A3A3A"/>
<path fill-rule="evenodd" clip-rule="evenodd" d="M61.1068 75.3021C61.2979 75.3949 61.8611 75.8724 62.0984 75.6568C61.7635 75.3193 61.4283 74.9818 61.0933 74.6443C60.9082 74.8473 60.7812 75.144 61.1068 75.3021Z" fill="#3A3A3A"/>
<path fill-rule="evenodd" clip-rule="evenodd" d="M56.8768 27.0127C56.7817 27.0837 56.6864 27.1545 56.5913 27.2253C56.9123 27.4927 56.9043 27.5722 57.2278 27.319C57.1318 27.1926 57.0149 27.0906 56.8768 27.0127Z" fill="#3A3A3A"/>
<path fill-rule="evenodd" clip-rule="evenodd" d="M117.531 90.0005C117.351 89.6775 117.011 90.2732 116.781 90.3701C116.408 90.5275 116.101 89.6935 116.208 90.6931C115.363 90.3062 114.85 91.194 114.305 91.6563C113.535 92.3098 112.593 92.6642 112.079 93.5922C114.497 94.1578 117.154 92.0733 118.957 90.7041C119.251 90.4805 120.721 89.3526 119.725 89.2435C119.317 89.1991 117.833 90.5435 117.531 90.0005Z" fill="#3A3A3A"/>
<path fill-rule="evenodd" clip-rule="evenodd" d="M116.814 88.0435C117.288 87.6705 116.267 87.6363 116.105 87.5972C116.119 87.8939 116.132 88.1904 116.146 88.4871C116.375 88.3484 116.598 88.2004 116.814 88.0435Z" fill="#3A3A3A"/>
<path fill-rule="evenodd" clip-rule="evenodd" d="M115.035 89.2876C115.176 89.1991 115.571 88.923 115.303 88.7173C115.06 88.8717 114.887 89.1237 114.849 89.4113C114.911 89.37 114.973 89.3288 115.035 89.2876Z" fill="#3A3A3A"/>
<path fill-rule="evenodd" clip-rule="evenodd" d="M75.8758 65.2288C75.5732 65.3474 75.4375 65.5351 75.4694 65.7922C75.9345 65.6971 75.8458 65.2579 75.8758 65.2288Z" fill="#3A3A3A"/>
</svg>
