<svg width="243" height="460" viewBox="0 0 243 460" fill="none" xmlns="http://www.w3.org/2000/svg">
<path fill-rule="evenodd" clip-rule="evenodd" d="M128.103 58.2363C122.091 64.4753 115.608 68.4492 112.073 68.4832C103.212 68.5689 94.3268 38.4587 97.5385 24.7892C100.751 11.1196 132.33 -2.92492 140.337 20.308C143.116 28.3715 141.629 36.6306 138.132 43.9817L158.694 84.1404L132.128 91.2578L128.103 58.2363Z" fill="#D4A181"/>
<path fill-rule="evenodd" clip-rule="evenodd" d="M91.3719 14.4239C92.9547 20.3335 98.8836 23.919 104.802 22.667C108.415 22.8021 112.905 22.409 117.747 21.4534C117.75 23.3127 118.027 25.3516 118.625 27.5798C119.152 29.5473 119.928 31.5755 120.896 33.5869C121.599 32.0852 122.763 30.9159 124.164 30.5408C128.079 29.4916 131.668 31.9811 132.584 35.3999C133.746 39.7389 132.082 43.5492 128.49 44.7805C133.479 50.2185 139.31 53.7575 143.862 52.5379C152.508 50.2212 155.559 37.0199 152.23 24.597C152.114 24.1606 151.988 23.7293 151.857 23.3035C155.321 24.5269 158.738 26.4318 162.18 28.3503V28.3504C169.493 32.4269 176.917 36.5655 185.146 34.3606C201.609 29.9492 199.254 -4.99609 176.251 1.16738C160.608 5.35896 153.525 9.70058 147.797 14.8487C145.502 11.5134 142.677 8.94908 139.658 7.43861C138.894 6.93566 137.826 6.54509 136.508 6.27049C135.695 6.07257 134.876 5.95329 134.058 5.91759C129.665 5.5202 123.595 6.03621 117.064 7.54405C115.843 7.82567 114.654 8.13134 113.501 8.45701C111.849 2.36745 105.578 -1.24144 99.4757 0.393472C93.3622 2.03157 89.7343 8.31313 91.3719 14.4239Z" fill="#191847"/>
<path fill-rule="evenodd" clip-rule="evenodd" d="M192.529 185.396L150.552 329.986L130.808 438.545H110.991L130.773 185.396H192.529Z" fill="#BA8B72"/>
<path fill-rule="evenodd" clip-rule="evenodd" d="M211.395 185.396C208.465 260.509 209.621 301.478 210.276 308.303C210.931 315.128 214.653 360.833 240.014 440.837H219.402C185.816 364.086 174.092 318.381 170.24 308.303C166.388 298.225 155.011 257.256 138.402 185.396H211.395Z" fill="#D4A181"/>
<path fill-rule="evenodd" clip-rule="evenodd" d="M193.431 185.396C182.512 235.15 163.627 314.57 136.775 423.655H107.79C105.649 311.689 114.756 237.997 130.527 185.396H193.431Z" fill="#429EA6"/>
<path fill-rule="evenodd" clip-rule="evenodd" d="M211.54 185.396C208.672 260.509 216.106 334.51 239.135 424.825H208.21C174.562 349.22 150.446 275.583 133.964 185.396H211.54Z" fill="#4EBCC6"/>
<path fill-rule="evenodd" clip-rule="evenodd" d="M242.952 455.728L241.899 438.772C241.856 438.069 241.172 437.588 240.483 437.736C230.547 439.877 216.794 435.11 216.794 435.11C202.935 444.922 182.922 449.398 176.023 450.713C174.725 450.961 173.897 452.269 174.257 453.54L175.853 459.164H216.794H240.677L242.952 455.728Z" fill="#191847"/>
<path fill-rule="evenodd" clip-rule="evenodd" d="M135.232 455.728L134.18 438.772C134.136 438.069 133.451 437.588 132.763 437.736C122.827 439.877 109.074 435.11 109.074 435.11C95.2141 444.922 75.2019 449.398 68.303 450.713C67.0048 450.961 66.1766 452.269 66.5369 453.54L68.1317 459.164H109.074H132.957L135.232 455.728Z" fill="#191847"/>
<path fill-rule="evenodd" clip-rule="evenodd" d="M67.602 106.477L110.555 121.015L98.8263 139.084L65.77 118.054C50.0469 116.566 42.6571 114.754 43.6006 112.616C44.3947 110.812 46.1455 110.562 47.7579 110.33C49.0144 110.15 50.1875 109.982 50.7586 109.102C52.0635 107.091 47.9281 101.595 43.7807 96.5466C39.6322 91.4985 43.0964 91.3909 45.1712 91.8566C52.2469 95.0199 59.7246 99.8933 67.602 106.477ZM33.5231 143.512L52.3952 149.926L54.459 167.359C54.459 167.359 41.897 161.284 31.8382 160.302C19.0126 159.051 13.6075 157.321 6.29242 150.766C2.37894 147.259 -1.77724 139.554 0.795135 136.352C1.78256 135.124 6.55605 136.773 11.4273 138.455C15.1398 139.736 18.9094 141.038 21.1006 141.101C24.0508 141.184 23.0667 137.554 22.2813 134.654C21.7168 132.573 21.2544 130.866 22.4208 131.178C27.4722 130.376 33.5231 143.512 33.5231 143.512Z" fill="#D4A181"/>
<path fill-rule="evenodd" clip-rule="evenodd" d="M128.79 112.874C115.044 115.147 96.2365 115.478 74.5306 106.533L69.8768 124.975C85.6988 135.959 106.569 143.596 123.042 140.212C136.025 137.545 139.912 120.594 128.79 112.874Z" fill="#2026A2"/>
<path fill-rule="evenodd" clip-rule="evenodd" d="M186.44 223.434C199.184 219.435 210.894 215.76 218.243 215.905C221.651 188.629 212.161 173.508 203.401 159.549C198.122 151.135 193.107 143.145 191.341 133.169C186.196 104.12 154.973 63.5165 151.539 64.1217L150.553 64.2953L123.341 69.094L120.225 69.6432C121.995 87.8684 119.453 108.387 116.893 129.038C116.296 133.861 115.697 138.691 115.153 143.501C93.3061 152.676 39.6038 143.614 39.6038 143.614C39.6038 143.614 31.4989 172.243 34.4425 183.306C66.5631 193.478 92.9799 195.88 113.828 192.67C115.34 205.104 118.907 216.562 125.834 226.383C135.116 239.543 162.589 230.92 186.44 223.434Z" fill="#004596"/>
</svg>
