<svg width="800" height="477" viewBox="0 0 800 477" fill="none" xmlns="http://www.w3.org/2000/svg">
<path d="M824.106 207.576C819.881 183.738 811.02 159.602 794.07 141.85C777.591 124.592 753.357 116.861 730.356 113.336C715.091 110.996 698.063 108.568 682.724 109.092C663.861 109.738 645.873 112.489 626.809 111.104C588.352 108.308 550.86 98.4578 513.539 89.327C446.398 72.9064 381.826 64.6961 314.758 88.108C216.274 122.487 152.099 207.537 121.789 304.631C114.935 326.584 109.731 349.041 105.99 371.724C129.201 371.724 152.408 371.724 175.619 371.724C231.353 371.724 287.082 371.724 342.816 371.724C410.315 371.724 477.809 371.724 545.308 371.724C603.808 371.724 662.314 371.724 720.814 371.724C749.895 371.724 778.976 371.773 808.058 371.699C806.271 364.257 808.302 356.498 810.202 349.085C821.864 303.623 832.434 254.522 824.106 207.576Z" fill="url(#paint0_radial_28_67)"/>
<path d="M0 331.823H940V476.25H0V331.823Z" fill="url(#paint1_radial_28_67)"/>
<path d="M375.511 355.078H198.282" stroke="#0061FE" stroke-width="0.489583" stroke-miterlimit="10"/>
<path d="M443.562 347.244H266.333" stroke="#0061FE" stroke-width="0.489583" stroke-miterlimit="10"/>
<path d="M643.558 379.067H744.901" stroke="#0061FE" stroke-width="0.489583" stroke-miterlimit="10"/>
<path d="M426.917 137.458C426.917 137.458 430.344 164.385 421.042 166.343C411.74 168.302 395.094 168.791 395.094 168.791L390.688 189.354L405.375 222.156L427.407 232.437L455.802 221.177L487.136 184.948L493.011 160.958C493.011 160.958 476.854 165.854 471.959 161.448C467.063 157.041 464.12 133.233 471.959 112.337C479.797 91.4421 460.698 101.229 460.698 101.229L423 132.562L426.917 137.458Z" fill="#FFDE99"/>
<path d="M426.917 137.458C426.917 137.458 430.344 164.385 421.042 166.343C411.74 168.302 395.094 168.791 395.094 168.791L390.688 189.354L405.375 222.156L427.407 232.437L455.802 221.177L487.136 184.948L493.011 160.958C493.011 160.958 476.854 165.854 471.959 161.448C467.063 157.041 464.12 133.233 471.959 112.337C479.797 91.4421 460.698 101.229 460.698 101.229L423 132.562L426.917 137.458Z" fill="url(#paint2_radial_28_67)"/>
<path d="M426.917 137.458C426.917 137.458 430.344 164.385 421.042 166.343C411.74 168.302 395.094 168.791 395.094 168.791L390.688 189.354L405.375 222.156L427.407 232.437L455.802 221.177L487.136 184.948L493.011 160.958C493.011 160.958 476.854 165.854 471.959 161.448C467.063 157.041 464.12 133.233 471.959 112.337C479.797 91.4421 460.698 101.229 460.698 101.229L423 132.562L426.917 137.458Z" fill="url(#paint3_radial_28_67)"/>
<path d="M404.641 72.0986C404.641 72.0986 394.267 124.92 416.562 145.854C417.37 146.613 418.472 146.99 419.578 146.907C425.693 146.452 446.442 143.969 454.334 131.093C463.635 115.916 470 110.531 470 110.531C470 110.531 481.505 122.526 485.422 112.734C489.338 102.942 486.89 90.7028 475.14 90.7028L448.703 46.6403L422.266 49.5778L404.641 72.0986Z" fill="#FFE584"/>
<path d="M442.094 96.8226L451.886 98.7809L441.849 116.895L417.125 140.395C417.125 140.395 413.458 138.05 408.528 134.427C402.937 122.452 401.909 107.158 402.311 94.7125C427.132 90.6881 442.094 96.8226 442.094 96.8226Z" fill="url(#paint4_radial_28_67)"/>
<path d="M437.688 54.7184C437.688 54.7184 439.156 93.3955 470 96.8226C470 96.8226 449.438 91.9268 444.542 64.0205C444.542 64.0205 459.719 98.7809 475.385 93.3955C480.276 91.7113 483.204 95.1384 484.932 98.9278C487.331 104.196 485.28 110.56 480.022 112.984C477.197 114.286 473.721 114.252 470 110.531C470 110.531 462.167 153.614 477.344 151.166C477.344 151.166 467.552 151.656 470 128.646C470 128.646 482.24 125.708 494.479 129.135C506.719 132.562 527.281 107.593 517.49 54.7184L497.906 28.7705C497.906 28.7705 447.073 14.0536 421.58 33.9895C419.524 35.5953 417.345 37.0396 415.128 38.4153C409.781 41.7445 399.133 53.1273 399.5 90.9476C399.5 90.9476 399.01 77.2393 406.844 68.9163C406.844 68.9163 403.926 70.297 403.182 82.3358C403.182 82.3358 411.25 62.5518 437.688 54.7184Z" fill="#241921"/>
<path d="M508.187 26.3226C508.677 25.3434 509.656 -5.50034 543.437 0.864239C550.982 2.28403 556.866 4.75642 561.454 7.73799C577.414 18.1074 577.708 34.6455 577.708 34.6455L554.208 6.24966C554.208 6.24966 524.343 -7.45868 517.489 17.5101C517.489 17.5101 536.994 -8.96659 566.673 10.6902C574.834 16.0952 581.096 23.9187 584.88 32.9466C590.976 47.4873 603.47 73.0239 614.432 68.4267C614.432 68.4267 605.986 82.9233 590.932 85.0726C573.796 87.5205 547.887 81.4888 534.439 53.1419C533.024 50.1604 530.659 47.7027 527.672 46.2976C525.215 45.1422 522.336 44.7064 519.942 46.8851C514.557 51.7809 508.192 28.2809 508.192 28.2809V26.3226H508.187Z" fill="#241921"/>
<path d="M497.906 28.7704C497.906 28.7704 498.885 20.4475 505.25 19.9579C511.614 19.4684 536.583 56.1871 517.489 54.7184C517.489 54.7184 502.312 39.0517 497.906 28.7704Z" fill="#0061FE"/>
<path d="M497.906 28.7704C497.906 28.7704 498.885 20.4475 505.25 19.9579C511.614 19.4684 536.583 56.1871 517.489 54.7184C517.489 54.7184 502.312 39.0517 497.906 28.7704Z" fill="url(#paint5_radial_28_67)"/>
<path d="M520.133 41.6172L514.41 46.2192" stroke="#0144B9" stroke-width="0.489583" stroke-miterlimit="10"/>
<path d="M516.912 37.6124L511.194 42.2144" stroke="#0144B9" stroke-width="0.489583" stroke-miterlimit="10"/>
<path d="M509.553 28.4571L503.83 33.0592" stroke="#0144B9" stroke-width="0.489583" stroke-miterlimit="10"/>
<path d="M518.753 39.9036L513.03 44.5056" stroke="#0144B9" stroke-width="0.489583" stroke-miterlimit="10"/>
<path d="M513.539 33.4166L507.815 38.0187" stroke="#0144B9" stroke-width="0.489583" stroke-miterlimit="10"/>
<path d="M513.817 93.1507C513.817 93.1507 507.453 126.442 492.765 120.567" stroke="#0144B9" stroke-width="0.489583" stroke-miterlimit="10"/>
<path d="M437.442 49.0882C437.442 49.0882 420.307 50.0674 407.088 67.2028" stroke="#0144B9" stroke-width="0.489583" stroke-miterlimit="10"/>
<path d="M581.381 211.63C581.381 211.63 546.14 207.845 526.2 209.03C519.233 209.446 513.368 214.371 511.767 221.162C509.549 230.572 505.706 244.51 501.089 251.281C495.287 259.79 500.183 310.79 502.494 331.818H405.37C399.114 318.011 387.501 291.545 382.61 274.781C375.756 251.281 386.526 248.344 387.995 228.271C387.995 228.271 367.922 245.896 362.047 252.75C362.047 252.75 364.495 254.219 363.516 256.177C362.537 258.135 362.047 261.073 362.047 261.073C362.047 261.073 331.693 254.219 325.328 262.052L322.391 257.646L326.308 249.323L331.203 244.917C331.203 244.917 369.881 180.781 383.099 172.458C396.318 164.135 410.119 167.846 410.119 167.846C410.119 167.846 404.151 222.396 429.12 219.948C454.089 217.5 480.894 163.22 480.894 163.22C480.894 163.22 483.464 158.755 493.256 158.265C503.047 157.776 617.12 175.89 633.276 190.578C633.276 190.578 641.599 190.088 643.068 196.942C643.068 196.942 655.308 197.921 651.391 212.119L581.381 211.63Z" fill="#004596"/>
<path d="M325.329 262.057C325.329 262.057 332.183 301.713 340.995 314.932C340.995 314.932 347.85 308.567 357.641 309.057C357.641 309.057 354.772 277.219 359.634 260.578C359.634 260.578 333.652 254.224 325.329 262.057Z" fill="#FFDE99"/>
<path d="M325.329 262.057C325.329 262.057 332.183 301.713 340.995 314.932C340.995 314.932 347.85 308.567 357.641 309.057C357.641 309.057 354.772 277.219 359.634 260.578C359.634 260.578 333.652 254.224 325.329 262.057Z" fill="url(#paint6_radial_28_67)"/>
<path d="M357.719 307.304L370.614 299.51C370.614 299.51 380.896 323.01 380.896 330.354C380.896 330.354 377.958 334.27 372.083 320.562L370.614 325.948L363.271 326.927L361.312 324.968L360.333 327.416L357.885 327.906L353.479 325.948L351.521 327.906L346.135 327.416C346.135 327.416 340.75 322.031 340.75 314.687C340.75 307.343 357.719 307.304 357.719 307.304Z" fill="#FFDE99"/>
<path d="M367.187 310.281L372.083 320.562L370.614 325.948L363.271 326.927L361.312 324.968L360.333 327.416L357.885 327.906L353.479 325.948L351.521 327.906L346.135 327.416C346.135 327.416 340.75 322.031 340.75 314.687C354.458 307.343 367.187 310.281 367.187 310.281Z" fill="url(#paint7_radial_28_67)"/>
<path d="M505.23 243.032C505.039 243.516 504.843 243.991 504.647 244.456C504.608 244.545 504.574 244.628 504.535 244.716C504.339 245.181 504.138 245.636 503.933 246.077C503.903 246.145 503.869 246.209 503.84 246.278C503.624 246.743 503.409 247.193 503.193 247.634C503.056 247.908 502.919 248.172 502.782 248.437C502.371 249.22 501.945 249.959 501.519 250.635C501.377 250.86 501.235 251.08 501.088 251.291C501.005 251.409 500.932 251.541 500.853 251.673C500.839 251.702 500.819 251.732 500.804 251.766C500.731 251.903 500.657 252.045 500.589 252.192C500.579 252.216 500.569 252.241 500.559 252.26C500.496 252.402 500.432 252.544 500.373 252.696C500.359 252.725 500.349 252.76 500.334 252.789C500.271 252.956 500.207 253.132 500.143 253.318C500.129 253.357 500.119 253.396 500.104 253.435C500.045 253.607 499.992 253.788 499.938 253.974C499.933 253.993 499.923 254.018 499.918 254.038C499.859 254.238 499.806 254.449 499.752 254.664C499.737 254.713 499.727 254.767 499.712 254.816C499.659 255.036 499.605 255.262 499.556 255.492C499.551 255.511 499.546 255.531 499.546 255.55C499.497 255.771 499.453 256.001 499.409 256.231C499.399 256.285 499.389 256.339 499.38 256.388C499.335 256.632 499.291 256.887 499.247 257.142C499.238 257.19 499.233 257.239 499.223 257.288C499.184 257.523 499.149 257.763 499.115 258.008C499.11 258.057 499.1 258.101 499.096 258.15C499.056 258.424 499.022 258.703 498.988 258.987C498.978 259.051 498.973 259.115 498.963 259.178C498.929 259.457 498.9 259.741 498.87 260.03C498.87 260.05 498.866 260.064 498.866 260.084C498.836 260.387 498.807 260.696 498.777 261.009C498.772 261.083 498.763 261.151 498.758 261.225C498.733 261.533 498.704 261.851 498.679 262.17C498.675 262.218 498.675 262.267 498.67 262.312C498.65 262.605 498.63 262.899 498.611 263.198C498.606 263.271 498.601 263.34 498.596 263.413C498.577 263.746 498.557 264.079 498.537 264.417C498.533 264.49 498.533 264.564 498.528 264.637C498.513 264.95 498.498 265.264 498.484 265.587C498.484 265.636 498.479 265.69 498.479 265.739C498.464 266.091 498.449 266.453 498.44 266.816C498.435 266.899 498.435 266.982 498.43 267.07C498.42 267.437 498.41 267.81 498.4 268.191C498.4 268.206 498.4 268.226 498.4 268.24C498.391 268.608 498.386 268.975 498.381 269.352C498.381 269.44 498.376 269.528 498.376 269.621C498.371 269.998 498.366 270.38 498.361 270.767C498.361 270.835 498.361 270.909 498.361 270.977C498.361 271.325 498.356 271.672 498.356 272.02C498.356 272.098 498.356 272.177 498.356 272.26C498.356 272.656 498.356 273.053 498.361 273.454C498.361 273.543 498.361 273.631 498.361 273.719C498.361 274.096 498.366 274.473 498.371 274.855C498.371 274.899 498.371 274.948 498.371 274.992C498.376 275.403 498.381 275.824 498.391 276.24C498.391 276.338 498.395 276.436 498.395 276.534C498.405 276.95 498.41 277.371 498.42 277.797C498.42 277.851 498.425 277.905 498.425 277.954C498.435 278.34 498.444 278.732 498.454 279.129C498.459 279.227 498.459 279.32 498.464 279.418C498.474 279.844 498.488 280.269 498.503 280.7C498.508 280.784 498.508 280.872 498.513 280.955C498.528 281.342 498.537 281.728 498.552 282.115C498.557 282.193 498.557 282.272 498.562 282.35C498.577 282.781 498.596 283.217 498.611 283.652C498.616 283.76 498.621 283.868 498.626 283.976C498.645 284.406 498.66 284.837 498.679 285.273C498.679 285.293 498.679 285.317 498.684 285.337C498.704 285.782 498.723 286.233 498.748 286.683C498.753 286.791 498.758 286.898 498.763 287.011C498.782 287.457 498.807 287.907 498.831 288.352C498.836 288.416 498.836 288.475 498.841 288.539C498.861 288.95 498.885 289.361 498.905 289.772C498.91 289.87 498.914 289.968 498.919 290.066C498.944 290.507 498.968 290.952 498.993 291.398C498.998 291.5 499.007 291.608 499.012 291.711C499.037 292.127 499.061 292.538 499.086 292.955C499.091 293.008 499.091 293.067 499.096 293.121C499.125 293.576 499.149 294.032 499.179 294.487C499.184 294.595 499.194 294.707 499.198 294.815C499.228 295.275 499.257 295.74 499.287 296.2C499.287 296.215 499.287 296.23 499.291 296.245C499.321 296.7 499.35 297.155 499.384 297.61C499.389 297.704 499.399 297.801 499.404 297.894C499.433 298.35 499.468 298.805 499.502 299.26C499.507 299.344 499.512 299.422 499.522 299.505C499.551 299.916 499.58 300.323 499.61 300.734C499.615 300.817 499.619 300.896 499.629 300.979C499.664 301.429 499.698 301.88 499.732 302.325C499.742 302.428 499.747 302.526 499.757 302.629C499.791 303.084 499.825 303.539 499.864 303.99C499.864 303.995 499.864 303.995 499.864 304C499.899 304.46 499.938 304.915 499.972 305.37C499.982 305.473 499.987 305.581 499.996 305.684C500.031 306.134 500.07 306.585 500.104 307.03C500.109 307.069 500.109 307.108 500.114 307.148C500.148 307.578 500.187 308.004 500.222 308.43C500.227 308.509 500.236 308.587 500.241 308.66C500.28 309.106 500.315 309.547 500.354 309.987C500.359 310.07 500.368 310.154 500.373 310.232C500.408 310.643 500.447 311.054 500.481 311.466C500.486 311.505 500.486 311.544 500.491 311.588C500.53 312.039 500.569 312.484 500.608 312.93C500.613 313.003 500.623 313.072 500.628 313.145C500.706 314.041 500.79 314.922 500.868 315.794C500.873 315.857 500.878 315.921 500.887 315.98C500.927 316.406 500.966 316.832 501.005 317.253C501.01 317.306 501.015 317.36 501.02 317.414C501.059 317.82 501.098 318.217 501.132 318.619C501.137 318.653 501.137 318.682 501.142 318.716C501.181 319.137 501.225 319.554 501.264 319.965C501.269 320.029 501.279 320.092 501.284 320.161C501.323 320.562 501.362 320.959 501.402 321.35C501.402 321.36 501.402 321.365 501.402 321.375C501.441 321.781 501.48 322.183 501.524 322.584C501.529 322.643 501.534 322.702 501.544 322.76C501.622 323.558 501.705 324.342 501.783 325.105C501.788 325.145 501.793 325.184 501.793 325.218C501.832 325.6 501.872 325.982 501.911 326.354C501.911 326.374 501.916 326.393 501.916 326.418C501.955 326.795 501.994 327.167 502.033 327.534C502.033 327.539 502.033 327.544 502.033 327.553C502.072 327.911 502.107 328.263 502.146 328.611C502.151 328.665 502.155 328.714 502.16 328.768C502.234 329.453 502.307 330.119 502.376 330.76C502.381 330.794 502.381 330.829 502.386 330.858C502.42 331.186 502.454 331.509 502.493 331.823H405.37C405.345 331.769 405.321 331.715 405.296 331.661C405.154 331.348 405.007 331.025 404.861 330.701C404.812 330.589 404.758 330.476 404.704 330.359C404.533 329.977 404.356 329.585 404.175 329.189C404.121 329.066 404.067 328.944 404.009 328.821C403.876 328.523 403.739 328.219 403.602 327.911C403.529 327.749 403.455 327.583 403.382 327.416C403.211 327.034 403.034 326.643 402.858 326.251C402.775 326.065 402.692 325.879 402.608 325.688C402.491 325.424 402.373 325.159 402.256 324.895C402.153 324.67 402.055 324.44 401.952 324.21C401.825 323.921 401.698 323.632 401.571 323.343C401.429 323.015 401.282 322.687 401.135 322.359C401.027 322.114 400.919 321.869 400.812 321.62C400.694 321.355 400.577 321.086 400.459 320.817C400.366 320.601 400.268 320.386 400.175 320.171C399.979 319.72 399.779 319.26 399.578 318.8C399.48 318.579 399.387 318.359 399.289 318.139C399.167 317.85 399.039 317.566 398.912 317.277C398.824 317.071 398.731 316.861 398.643 316.655C398.418 316.136 398.192 315.612 397.967 315.084C397.889 314.898 397.806 314.712 397.727 314.526C397.59 314.202 397.448 313.879 397.311 313.551C397.238 313.38 397.164 313.214 397.091 313.042C396.841 312.455 396.592 311.867 396.337 311.275C396.263 311.108 396.195 310.942 396.121 310.77C395.975 310.428 395.828 310.08 395.686 309.733C395.617 309.576 395.554 309.414 395.485 309.258C395.226 308.636 394.961 308.014 394.702 307.387C394.633 307.226 394.57 307.069 394.501 306.908C394.354 306.555 394.207 306.203 394.06 305.85C393.992 305.684 393.923 305.517 393.855 305.356C393.595 304.724 393.336 304.093 393.076 303.461C393.013 303.304 392.949 303.148 392.885 302.991C392.738 302.634 392.592 302.276 392.45 301.914C392.381 301.752 392.317 301.586 392.249 301.424C391.994 300.798 391.74 300.166 391.49 299.539C391.421 299.373 391.353 299.202 391.289 299.035C391.147 298.683 391.005 298.33 390.868 297.978C390.8 297.801 390.731 297.63 390.663 297.454C390.423 296.842 390.178 296.23 389.943 295.623C389.874 295.447 389.806 295.27 389.732 295.089C389.6 294.751 389.468 294.409 389.336 294.071C389.262 293.875 389.184 293.684 389.111 293.488C388.89 292.91 388.67 292.338 388.45 291.765C388.376 291.574 388.303 291.378 388.229 291.187C388.107 290.859 387.985 290.536 387.862 290.213C387.784 290.007 387.706 289.797 387.632 289.591C387.436 289.072 387.245 288.558 387.059 288.044C386.976 287.814 386.888 287.584 386.805 287.354C386.692 287.05 386.584 286.752 386.477 286.453C386.393 286.228 386.315 286.002 386.237 285.782C386.07 285.322 385.909 284.872 385.752 284.416C385.659 284.157 385.566 283.897 385.478 283.638C385.38 283.359 385.282 283.08 385.189 282.801C385.111 282.57 385.028 282.335 384.949 282.105C384.822 281.728 384.695 281.351 384.567 280.979C384.465 280.676 384.362 280.372 384.264 280.069C384.181 279.814 384.097 279.56 384.014 279.305C383.936 279.06 383.857 278.82 383.779 278.58C383.701 278.34 383.627 278.101 383.549 277.866C384.876 278.62 386.105 279.124 390.202 279.457C408.317 280.925 408.317 273.092 432.307 277.988C456.296 282.884 477.838 282.394 481.755 253.998C485.568 226.352 499.869 200.634 529.734 198.675C559.598 196.717 588.352 205.838 588.352 205.838L583.813 211.664L581.39 211.649C581.39 211.649 581.375 211.649 581.355 211.645C581.346 211.645 581.336 211.645 581.321 211.64C581.306 211.64 581.292 211.635 581.272 211.635C581.253 211.635 581.233 211.63 581.213 211.63C581.184 211.625 581.145 211.625 581.106 211.62C581.076 211.615 581.047 211.615 581.013 211.61C580.983 211.605 580.949 211.605 580.915 211.6C580.866 211.596 580.822 211.591 580.773 211.586C580.69 211.576 580.597 211.566 580.499 211.556C580.469 211.551 580.435 211.552 580.401 211.547C580.313 211.537 580.22 211.527 580.122 211.517C580.092 211.512 580.058 211.512 580.024 211.507C579.921 211.498 579.818 211.488 579.706 211.473C579.661 211.468 579.617 211.463 579.568 211.458C579.466 211.449 579.363 211.439 579.25 211.429C579.187 211.424 579.123 211.414 579.054 211.41C578.917 211.395 578.775 211.38 578.624 211.365C578.589 211.361 578.565 211.361 578.531 211.356C578.344 211.336 578.154 211.317 577.953 211.302C577.894 211.297 577.83 211.292 577.767 211.282C577.62 211.268 577.468 211.253 577.316 211.238C577.243 211.233 577.165 211.223 577.086 211.219C576.92 211.204 576.748 211.184 576.577 211.17C576.523 211.165 576.464 211.16 576.411 211.155C576.215 211.135 576.009 211.116 575.799 211.096C575.745 211.091 575.691 211.086 575.637 211.082C575.378 211.057 575.108 211.033 574.834 211.008C574.829 211.008 574.819 211.008 574.815 211.008C574.565 210.984 574.305 210.964 574.046 210.94C573.948 210.93 573.845 210.92 573.742 210.91C573.547 210.891 573.346 210.876 573.14 210.856C573.047 210.846 572.959 210.842 572.866 210.832C572.651 210.812 572.43 210.793 572.205 210.773C572.117 210.763 572.029 210.758 571.941 210.749C571.667 210.724 571.387 210.7 571.099 210.675C571.059 210.67 571.02 210.67 570.981 210.665C570.658 210.636 570.33 210.611 569.997 210.582C569.909 210.572 569.821 210.567 569.733 210.558C569.483 210.538 569.233 210.514 568.974 210.494C568.861 210.484 568.749 210.474 568.641 210.465C568.396 210.445 568.146 210.425 567.897 210.406C567.789 210.396 567.681 210.386 567.574 210.381C567.309 210.362 567.045 210.337 566.776 210.318C566.673 210.308 566.57 210.303 566.467 210.293C565.733 210.235 564.984 210.176 564.215 210.122C564.107 210.112 564.005 210.107 563.897 210.097C563.623 210.078 563.353 210.058 563.074 210.039C562.937 210.029 562.795 210.019 562.653 210.009C562.389 209.99 562.125 209.97 561.855 209.951C561.723 209.941 561.591 209.931 561.459 209.921C561.145 209.897 560.827 209.877 560.509 209.853C560.426 209.848 560.342 209.843 560.259 209.833C559.853 209.804 559.447 209.779 559.035 209.75C558.952 209.745 558.869 209.74 558.786 209.735C558.458 209.716 558.125 209.691 557.792 209.672C557.664 209.662 557.537 209.657 557.415 209.647C557.126 209.627 556.832 209.608 556.543 209.593C556.396 209.583 556.254 209.574 556.108 209.564C555.814 209.544 555.52 209.53 555.221 209.51C555.094 209.5 554.962 209.495 554.835 209.485C549.909 209.197 544.759 208.966 539.824 208.869C539.447 208.859 539.075 208.854 538.698 208.849C538.688 208.849 538.678 208.849 538.674 208.849C538.184 208.839 537.699 208.834 537.215 208.829C537.097 208.829 536.975 208.829 536.857 208.825C535.873 208.815 534.899 208.815 533.944 208.82C533.827 208.82 533.714 208.82 533.597 208.82C532.647 208.825 531.712 208.839 530.796 208.864C530.684 208.869 530.571 208.869 530.458 208.873C529.548 208.898 528.662 208.927 527.8 208.967C527.692 208.971 527.584 208.976 527.482 208.981C527.051 209.001 526.625 209.025 526.209 209.05C524.466 209.153 522.796 209.539 521.239 210.166C520.882 210.308 520.53 210.47 520.187 210.641C520.143 210.665 520.094 210.685 520.05 210.705C519.722 210.866 519.404 211.042 519.09 211.228C519.036 211.263 518.978 211.297 518.924 211.326C518.615 211.512 518.317 211.713 518.023 211.919C517.974 211.953 517.925 211.987 517.876 212.026C517.577 212.242 517.284 212.467 517 212.707C516.975 212.727 516.951 212.751 516.926 212.771C516.647 213.01 516.373 213.255 516.109 213.515C516.084 213.539 516.065 213.559 516.04 213.578C515.776 213.838 515.526 214.107 515.281 214.386C515.242 214.43 515.203 214.474 515.164 214.523C514.929 214.797 514.704 215.077 514.488 215.37C514.449 215.424 514.41 215.473 514.371 215.527C514.155 215.821 513.95 216.124 513.754 216.438C513.729 216.482 513.7 216.526 513.675 216.565C513.475 216.893 513.279 217.231 513.103 217.573C512.931 217.911 512.77 218.259 512.623 218.611C512.579 218.714 512.54 218.822 512.495 218.925C512.388 219.189 512.29 219.453 512.202 219.728C512.163 219.835 512.128 219.943 512.094 220.056C511.977 220.428 511.869 220.8 511.781 221.182C511.688 221.573 511.595 221.975 511.497 222.376C511.472 222.479 511.448 222.582 511.423 222.685C511.325 223.091 511.227 223.502 511.12 223.918C511.115 223.933 511.115 223.948 511.11 223.958C511.007 224.374 510.899 224.795 510.792 225.221C510.762 225.328 510.738 225.436 510.709 225.544C510.483 226.415 510.253 227.311 510.008 228.217C509.979 228.33 509.945 228.447 509.915 228.56C509.671 229.47 509.416 230.391 509.147 231.316C509.112 231.429 509.083 231.546 509.049 231.659C508.917 232.124 508.78 232.594 508.638 233.059C508.432 233.754 508.217 234.454 508.001 235.149C507.786 235.845 507.561 236.54 507.335 237.225C507.11 237.911 506.875 238.596 506.64 239.272V239.277C506.405 239.952 506.165 240.618 505.92 241.274C505.725 241.798 505.524 242.312 505.323 242.821C505.289 242.885 505.259 242.958 505.23 243.032Z" fill="url(#paint8_radial_28_67)"/>
<path d="M573.748 371.738H713.367C716.451 371.738 718.953 369.236 718.953 366.152V224.114H568.161V366.152C568.161 369.236 570.663 371.738 573.748 371.738Z" fill="#FB8F8F"/>
<path d="M504.472 224.344H568.162V366.147C568.162 369.232 570.664 371.733 573.748 371.733H645.678C645.173 371.88 644.645 371.963 644.091 371.963H504.472C501.388 371.963 498.886 369.462 498.886 366.377V229.93C498.886 226.846 501.388 224.344 504.472 224.344Z" fill="#EECFF8"/>
<path d="M501.02 237.024C501.02 237.024 492.031 245.166 489.583 249.573C487.135 253.979 487.135 259.364 485.177 266.708C485.177 266.708 492.031 265.729 495.948 252.02C499.865 238.312 501.02 237.024 501.02 237.024Z" fill="url(#paint9_radial_28_67)"/>
<path opacity="0.57" d="M580.646 235.375L568.161 237.025V230.107L578.687 230.968L580.646 235.375Z" fill="url(#paint10_radial_28_67)"/>
<path d="M593.865 255.448H744.656L718.708 224.114H567.917L593.865 255.448Z" fill="#F9C1DA"/>
<path d="M405.591 332.312C399.75 319.446 388.916 294.839 383.545 277.846C384.872 278.6 386.1 279.104 390.198 279.437C408.313 280.906 408.313 273.073 432.302 277.968C456.292 282.864 477.834 282.375 481.75 253.979C485.564 226.332 499.865 200.614 529.729 198.656C559.594 196.698 588.347 205.819 588.347 205.819L583.809 211.645L581.385 211.63C581.385 211.63 568.299 210.225 553.562 209.392C552.049 209.309 550.522 209.226 548.99 209.157C548.221 209.123 547.452 209.089 546.689 209.06C544.388 208.967 542.086 208.893 539.829 208.849C539.453 208.839 539.08 208.834 538.703 208.829C534.224 208.761 529.945 208.81 526.209 209.03C524.466 209.133 522.797 209.52 521.24 210.146C517.744 211.556 514.841 214.181 513.108 217.559C512.53 218.685 512.08 219.894 511.781 221.167C510.949 224.697 509.891 228.863 508.648 233.049C508.442 233.744 508.227 234.444 508.011 235.14C507.796 235.835 507.571 236.53 507.346 237.215C507.12 237.906 506.885 238.586 506.65 239.262C506.415 239.938 506.176 240.603 505.931 241.259C505.074 243.556 504.163 245.72 503.214 247.629C502.67 248.721 502.112 249.729 501.539 250.63C501.397 250.855 501.255 251.076 501.108 251.286C499.086 254.248 498.367 262.36 498.377 272.563C498.357 291.706 500.991 318.486 502.509 332.312H405.591Z" fill="url(#paint11_radial_28_67)"/>
<path d="M533.156 225.093H565.958L568.161 229.989V237.333C568.161 237.333 542.458 237.823 532.177 249.083C521.896 260.343 515.531 312.239 498.885 308.323V252.794L533.156 225.093Z" fill="url(#paint12_radial_28_67)"/>
<path d="M582.604 241.739L567.917 224.114H648.698C648.698 224.114 659.469 242.718 582.604 241.739Z" fill="url(#paint13_radial_28_67)"/>
<path d="M642.95 203.287C646.984 203.836 650.318 206.832 651.116 210.822C651.836 214.435 651.464 219.414 647.718 225.583C639.733 238.738 572.249 229.353 535.658 235.923C532.803 236.437 530.262 238.058 528.573 240.417C524.304 246.376 516.074 258.498 513.573 266.708C510.145 277.968 506.229 294.125 503.781 300.489C503.781 300.489 502.067 301.224 501.578 295.838V274.786L497.661 288.005L495.703 300.734C495.703 300.734 493.255 300.734 491.297 295.349C491.297 295.349 489.338 296.817 488.359 290.453V282.619L485.422 275.765L489.338 253.244C489.338 253.244 504.251 230.205 510.748 225.324C517.244 220.442 556.901 214.567 586.765 206.244C609.585 199.885 633.114 201.956 642.95 203.287Z" fill="#FFE584"/>
<path d="M524.774 245.896C524.774 245.896 524.769 245.896 524.774 245.896C519.384 239.629 514.679 232.364 512.334 224.403C522.135 219.703 558.756 214.053 586.765 206.244C609.585 199.885 633.114 201.956 642.95 203.287C646.984 203.836 650.318 206.832 651.116 210.822C651.836 214.435 651.464 219.414 647.718 225.583C640.145 238.058 579.045 230.259 541.547 235.027C535.036 235.854 529.18 239.404 525.489 244.833C525.254 245.181 525.014 245.534 524.774 245.896Z" fill="url(#paint14_radial_28_67)"/>
<path d="M495.703 300.734C495.703 300.734 493.255 300.734 491.297 295.349C491.297 295.349 489.339 296.817 488.359 290.453V282.619L485.422 275.765L489.02 255.467C489.02 255.467 500.354 263.281 506.719 261.323L501.333 274.541L501.206 276.039L497.661 288.005L495.703 300.734Z" fill="url(#paint15_radial_28_67)"/>
<path d="M348.583 249.573C364.739 247.125 388.239 211.875 388.239 211.875V228.031L387.97 228.56C387.98 228.467 387.985 228.374 387.994 228.276C387.994 228.276 367.922 245.901 362.047 252.755C362.047 252.755 364.494 254.224 363.515 256.182C362.536 258.14 362.047 261.078 362.047 261.078C362.047 261.078 360.074 260.632 357.028 260.099C357.009 258.821 356.382 257.137 353.968 255.448C349.073 252.02 329 255.448 329 255.448C329 255.448 332.427 252.02 348.583 249.573Z" fill="url(#paint16_radial_28_67)"/>
<path d="M514.062 165.854C514.062 165.854 487.625 159.489 483.219 169.281" stroke="#0061FE" stroke-width="0.489583" stroke-miterlimit="10"/>
<path d="M399.255 170.505C399.255 170.505 386.526 172.953 380.651 179.317" stroke="#0061FE" stroke-width="0.489583" stroke-miterlimit="10"/>
<path d="M432.273 265.885C432.273 265.885 445.751 273.283 457.545 266.076" stroke="#0061FE" stroke-width="0.489583" stroke-miterlimit="10"/>
<path d="M522.141 40.2757C522.141 40.2757 529.974 35.8694 541.724 54.9632C553.631 74.3115 568.162 74.5465 581.87 73.0777" stroke="#0061FE" stroke-width="0.489583" stroke-miterlimit="10"/>
<path d="M161.382 134.765H177.65L172.5 118.501H156.231L161.382 134.765Z" stroke="#0061FE" stroke-width="0.489583" stroke-miterlimit="10"/>
<path d="M237.83 161.134C235.842 158.657 232.092 157.541 230.06 158.818C229.086 159.43 228.523 160.468 227.637 161.178C226.384 162.187 224.474 162.49 222.521 161.991C220.563 161.496 218.59 160.204 217.229 158.535" stroke="#FA404B" stroke-width="0.489583" stroke-miterlimit="10"/>
<path d="M150.611 85.3174H166.879L161.729 69.0534H145.46L150.611 85.3174Z" fill="url(#paint17_radial_28_67)"/>
<path d="M157.152 105.968H173.416L168.265 89.6992H152.001L157.152 105.968Z" fill="url(#paint18_radial_28_67)"/>
<path d="M163.687 126.614H179.951L174.801 110.345H158.537L163.687 126.614Z" fill="url(#paint19_radial_28_67)"/>
<path d="M160.476 77.1314L158.758 81.43L148.442 72.8329" stroke="white" stroke-width="0.489583" stroke-miterlimit="10"/>
<path d="M216.386 148.718H278.891C280.982 148.718 282.176 147.024 281.559 144.934L271.41 110.585C270.793 108.494 268.6 106.8 266.509 106.8H204.004C201.914 106.8 200.719 108.494 201.336 110.585L211.485 144.934C212.102 147.024 214.295 148.718 216.386 148.718Z" fill="#FB8F8F"/>
<path d="M201.483 137.458H266.804C268.894 137.458 270.089 135.764 269.472 133.673L258.828 97.6401C258.211 95.5496 256.018 93.8556 253.928 93.8556H188.607C186.517 93.8556 185.322 95.5496 185.939 97.6401L196.583 133.673C197.2 135.764 199.393 137.458 201.483 137.458Z" stroke="#FB8F8F" stroke-width="0.489583" stroke-miterlimit="10"/>
<path d="M209.831 139.333H279.9L277.868 132.45H207.794L209.831 139.333Z" fill="url(#paint20_linear_28_67)"/>
<path d="M256.566 123.593H264.527C265.609 123.593 266.231 122.717 265.908 121.63L264.356 116.372C264.037 115.29 262.897 114.408 261.815 114.408H253.854C252.772 114.408 252.15 115.285 252.474 116.372L254.026 121.63C254.344 122.717 255.485 123.593 256.566 123.593Z" fill="url(#paint21_radial_28_67)"/>
<path d="M261.115 114.408L262.373 118.673L261.223 121.297L261.898 123.593" stroke="#F9C1DA" stroke-width="0.489583" stroke-miterlimit="10"/>
<path d="M261.223 121.297L258.285 118.673H253.154" stroke="#F9C1DA" stroke-width="0.489583" stroke-miterlimit="10"/>
<path d="M255.073 114.408L256.336 118.673" stroke="#F9C1DA" stroke-width="0.489583" stroke-miterlimit="10"/>
<path d="M216.386 148.718C214.296 148.718 212.103 147.024 211.486 144.934L201.337 110.585C200.72 108.494 201.914 106.8 204.005 106.8H215.162L246.437 148.718H216.386Z" fill="url(#paint22_radial_28_67)"/>
<path d="M188.764 220.197H327.228L294.441 118.364H155.977L188.764 220.197Z" fill="url(#paint23_radial_28_67)"/>
<path d="M186.776 183.724H304.766L301.339 174.421H183.349L186.776 183.724Z" stroke="white" stroke-width="0.489583" stroke-miterlimit="10"/>
<path d="M192.162 196.453H310.151L306.724 187.151H188.735L192.162 196.453Z" stroke="white" stroke-width="0.489583" stroke-miterlimit="10"/>
<path d="M196.568 209.182H314.558L311.131 199.88H193.141L196.568 209.182Z" stroke="white" stroke-width="0.489583" stroke-miterlimit="10"/>
<path d="M196.176 335.764H442.363C443.636 335.764 444.669 334.731 444.669 333.458V330.128C444.669 328.856 443.636 327.823 442.363 327.823H196.176C194.903 327.823 193.87 328.856 193.87 330.128V333.458C193.87 334.731 194.903 335.764 196.176 335.764Z" fill="#FB8F8F"/>
<path d="M196.176 335.764H343.1C344.373 335.764 345.406 334.731 345.406 333.458V330.128C345.406 328.856 344.373 327.823 343.1 327.823H196.171C194.899 327.823 193.866 328.856 193.866 330.128V333.458C193.87 334.731 194.903 335.764 196.176 335.764Z" fill="#F9C1DA"/>
<path d="M159.643 203.415H301.828C303.742 203.415 305.446 204.643 306.043 206.465L343.482 320.009C344.427 322.883 342.287 325.84 339.266 325.84H197.077C195.163 325.84 193.459 324.611 192.862 322.79L155.423 209.246C154.478 206.372 156.618 203.415 159.643 203.415Z" fill="#EECFF8"/>
<path d="M361.851 333.776H373.964C374.639 333.776 375.188 333.228 375.188 332.552V331.69C375.188 331.015 374.639 330.466 373.964 330.466H361.851C361.176 330.466 360.627 331.015 360.627 331.69V332.552C360.627 333.228 361.176 333.776 361.851 333.776Z" stroke="#0061FE" stroke-width="0.489583" stroke-miterlimit="10"/>
<path d="M203.363 334.109H215.476C216.151 334.109 216.7 333.561 216.7 332.885V332.023C216.7 331.348 216.151 330.799 215.476 330.799H203.363C202.688 330.799 202.14 331.348 202.14 332.023V332.885C202.14 333.561 202.688 334.109 203.363 334.109Z" stroke="#0061FE" stroke-width="0.489583" stroke-miterlimit="10"/>
<path d="M386.007 334.109H398.12C398.795 334.109 399.344 333.561 399.344 332.885V332.023C399.344 331.348 398.795 330.799 398.12 330.799H386.007C385.332 330.799 384.783 331.348 384.783 332.023V332.885C384.783 333.561 385.332 334.109 386.007 334.109Z" stroke="#0061FE" stroke-width="0.489583" stroke-miterlimit="10"/>
<path d="M352.916 334.109H353.778C354.454 334.109 355.002 333.561 355.002 332.885V332.023C355.002 331.348 354.454 330.799 353.778 330.799H352.916C352.241 330.799 351.692 331.348 351.692 332.023V332.885C351.692 333.561 352.241 334.109 352.916 334.109Z" stroke="#0061FE" stroke-width="0.489583" stroke-miterlimit="10"/>
<path d="M157.034 204.266C157.758 203.738 158.649 203.415 159.643 203.415H301.828C303.742 203.415 305.446 204.643 306.043 206.465L343.041 318.672L157.034 204.266Z" fill="url(#paint24_linear_28_67)"/>
<path d="M180.926 212.085L225.928 239.879" stroke="white" stroke-width="0.489583" stroke-miterlimit="10"/>
<path d="M712.833 282.551H839.934V371.386H712.833V282.551Z" fill="#DEF4FF"/>
<path d="M653.104 266.052H759.021V371.968H653.104V266.052Z" fill="#FFDE99"/>
<path d="M687.209 266.052H793.125V371.968H687.209V266.052Z" fill="#F1D23C"/>
<path d="M750.997 266.052H769.053V298.149H750.997V266.052Z" fill="#FB8F8F"/>
<path d="M476.365 313.708H572.323V380.781H476.365V313.708Z" fill="#F2F6FF"/>
<path d="M524.343 313.708H620.302V380.781H524.343V313.708Z" fill="url(#paint25_radial_28_67)"/>
<path d="M524.344 313.708L498.885 333.776L476.365 313.708" stroke="#0061FE" stroke-width="0.489583" stroke-miterlimit="10"/>
<path d="M524.589 381.026L499.13 366.338L476.61 381.026" stroke="#0061FE" stroke-width="0.489583" stroke-miterlimit="10"/>
<path d="M499.13 333.536V366.338" stroke="#0061FE" stroke-width="0.489583" stroke-miterlimit="10"/>
<path d="M774.849 109.043C777.287 112.259 777.189 117.15 774.619 120.264C771.652 123.857 766.266 124.812 763.466 128.533C761.331 131.368 761.238 135.573 763.246 138.501" stroke="#0061FE" stroke-width="0.489583" stroke-miterlimit="10"/>
<path d="M314.313 43.7027C312.286 43.7027 310.641 42.0587 310.641 40.0309C310.641 38.003 312.286 36.359 314.313 36.359C316.339 36.359 317.984 38.003 317.984 40.0309C317.984 42.0587 316.339 43.7027 314.313 43.7027Z" stroke="#0061FE" stroke-width="0.489583" stroke-miterlimit="10"/>
<path d="M646.248 144.001L650.976 145.274L649.703 150.001L644.976 148.729L646.248 144.001Z" stroke="#FA404B" stroke-width="0.489583" stroke-miterlimit="10"/>
<path d="M120.452 171.423L125.182 172.695L123.909 177.423L119.179 176.15L120.452 171.423Z" stroke="#0061FE" stroke-width="0.489583" stroke-miterlimit="10"/>
<path d="M272.942 394.734C272.942 394.734 255.317 375.151 229.859 385.921" stroke="#FA404B" stroke-width="0.489583" stroke-miterlimit="10"/>
<path d="M729.234 30.9736L737.067 42.7236" stroke="#FA404B" stroke-width="0.489583" stroke-miterlimit="10"/>
<path d="M776.234 394.734L768.891 400.119" stroke="#FA404B" stroke-width="0.489583" stroke-miterlimit="10"/>
<path d="M188.392 275.188C187.183 280.911 182.037 285.572 176.226 286.218C174.091 286.453 171.927 286.203 169.793 286.448C165.857 286.903 162.165 289.151 159.952 292.436" stroke="#0061FE" stroke-width="0.489583" stroke-miterlimit="10"/>
<defs>
<radialGradient id="paint0_radial_28_67" cx="0" cy="0" r="1" gradientUnits="userSpaceOnUse" gradientTransform="translate(615.053 19.3053) rotate(166.185) scale(488.808 298.131)">
<stop stop-color="#EECFF8"/>
<stop offset="0.9011" stop-color="white" stop-opacity="0"/>
</radialGradient>
<radialGradient id="paint1_radial_28_67" cx="0" cy="0" r="1" gradientUnits="userSpaceOnUse" gradientTransform="translate(475.937 290.83) rotate(180) scale(333.733 171.406)">
<stop offset="0.3362" stop-color="#DEF4FF"/>
<stop offset="0.5609" stop-color="#E4F6FF" stop-opacity="0.6615"/>
<stop offset="0.8543" stop-color="#F4FBFF" stop-opacity="0.2196"/>
<stop offset="1" stop-color="white" stop-opacity="0"/>
</radialGradient>
<radialGradient id="paint2_radial_28_67" cx="0" cy="0" r="1" gradientUnits="userSpaceOnUse" gradientTransform="translate(424.2 142.431) rotate(180) scale(52.2709)">
<stop stop-color="#FA404B"/>
<stop offset="0.025" stop-color="#FA484F" stop-opacity="0.975"/>
<stop offset="0.1916" stop-color="#FC7565" stop-opacity="0.8084"/>
<stop offset="0.3589" stop-color="#FD9B78" stop-opacity="0.6411"/>
<stop offset="0.5244" stop-color="#FEB886" stop-opacity="0.4756"/>
<stop offset="0.6876" stop-color="#FECD91" stop-opacity="0.3124"/>
<stop offset="0.8474" stop-color="#FFDA97" stop-opacity="0.1526"/>
<stop offset="1" stop-color="#FFDE99" stop-opacity="0"/>
</radialGradient>
<radialGradient id="paint3_radial_28_67" cx="0" cy="0" r="1" gradientUnits="userSpaceOnUse" gradientTransform="translate(494.701 152.078) rotate(180) scale(86.5848)">
<stop stop-color="#FFE584"/>
<stop offset="0.025" stop-color="#FA484F" stop-opacity="0.975"/>
<stop offset="0.1916" stop-color="#FC7565" stop-opacity="0.8084"/>
<stop offset="0.3589" stop-color="#FD9B78" stop-opacity="0.6411"/>
<stop offset="0.5244" stop-color="#FEB886" stop-opacity="0.4756"/>
<stop offset="0.6876" stop-color="#FECD91" stop-opacity="0.3124"/>
<stop offset="0.8474" stop-color="#FFDA97" stop-opacity="0.1526"/>
<stop offset="1" stop-color="#FFDE99" stop-opacity="0"/>
</radialGradient>
<radialGradient id="paint4_radial_28_67" cx="0" cy="0" r="1" gradientUnits="userSpaceOnUse" gradientTransform="translate(420.489 84.1757) rotate(180) scale(49.2941)">
<stop stop-color="#FFE584"/>
<stop offset="0.025" stop-color="#FA484F" stop-opacity="0.975"/>
<stop offset="0.1916" stop-color="#FC7565" stop-opacity="0.8084"/>
<stop offset="0.3589" stop-color="#FD9B78" stop-opacity="0.6411"/>
<stop offset="0.5244" stop-color="#FEB886" stop-opacity="0.4756"/>
<stop offset="0.6876" stop-color="#FECD91" stop-opacity="0.3124"/>
<stop offset="0.8474" stop-color="#FFDA97" stop-opacity="0.1526"/>
<stop offset="1" stop-color="#FFDE99" stop-opacity="0"/>
</radialGradient>
<radialGradient id="paint5_radial_28_67" cx="0" cy="0" r="1" gradientUnits="userSpaceOnUse" gradientTransform="translate(528.44 80.6354) rotate(180) scale(74.3841 74.3839)">
<stop offset="0.0936" stop-color="#241921"/>
<stop offset="1" stop-color="#0144B9" stop-opacity="0"/>
</radialGradient>
<radialGradient id="paint6_radial_28_67" cx="0" cy="0" r="1" gradientUnits="userSpaceOnUse" gradientTransform="translate(340.467 246.418) rotate(180) scale(76.2303 76.2305)">
<stop stop-color="#FFE584"/>
<stop offset="0.025" stop-color="#FA484F" stop-opacity="0.975"/>
<stop offset="0.1916" stop-color="#FC7565" stop-opacity="0.8084"/>
<stop offset="0.3589" stop-color="#FD9B78" stop-opacity="0.6411"/>
<stop offset="0.5244" stop-color="#FEB886" stop-opacity="0.4756"/>
<stop offset="0.6876" stop-color="#FECD91" stop-opacity="0.3124"/>
<stop offset="0.8474" stop-color="#FFDA97" stop-opacity="0.1526"/>
<stop offset="1" stop-color="#FFDE99" stop-opacity="0"/>
</radialGradient>
<radialGradient id="paint7_radial_28_67" cx="0" cy="0" r="1" gradientUnits="userSpaceOnUse" gradientTransform="translate(369.038 305.942) rotate(180) scale(27.544)">
<stop stop-color="#FFE584"/>
<stop offset="0.025" stop-color="#FA484F" stop-opacity="0.975"/>
<stop offset="0.1916" stop-color="#FC7565" stop-opacity="0.8084"/>
<stop offset="0.3589" stop-color="#FD9B78" stop-opacity="0.6411"/>
<stop offset="0.5244" stop-color="#FEB886" stop-opacity="0.4756"/>
<stop offset="0.6876" stop-color="#FECD91" stop-opacity="0.3124"/>
<stop offset="0.8474" stop-color="#FFDA97" stop-opacity="0.1526"/>
<stop offset="1" stop-color="#FFDE99" stop-opacity="0"/>
</radialGradient>
<radialGradient id="paint8_radial_28_67" cx="0" cy="0" r="1" gradientUnits="userSpaceOnUse" gradientTransform="translate(546.03 254.166) rotate(180) scale(90.006)">
<stop offset="0.0936" stop-color="#241921"/>
<stop offset="1" stop-color="#0144B9" stop-opacity="0"/>
</radialGradient>
<radialGradient id="paint9_radial_28_67" cx="0" cy="0" r="1" gradientUnits="userSpaceOnUse" gradientTransform="translate(511.862 246.115) rotate(180) scale(34.5581)">
<stop stop-color="#FA404B"/>
<stop offset="0.025" stop-color="#FA484F"/>
<stop offset="0.1916" stop-color="#FC7565"/>
<stop offset="0.3589" stop-color="#FD9B78"/>
<stop offset="0.5244" stop-color="#FEB886"/>
<stop offset="0.6876" stop-color="#FECD91"/>
<stop offset="0.8474" stop-color="#FFDA97"/>
<stop offset="1" stop-color="#FFDE99"/>
</radialGradient>
<radialGradient id="paint10_radial_28_67" cx="0" cy="0" r="1" gradientUnits="userSpaceOnUse" gradientTransform="translate(593.56 213.039) rotate(180) scale(36.4506 36.4507)">
<stop offset="0.0936" stop-color="#241921"/>
<stop offset="1" stop-color="#0144B9" stop-opacity="0"/>
</radialGradient>
<radialGradient id="paint11_radial_28_67" cx="0" cy="0" r="1" gradientUnits="userSpaceOnUse" gradientTransform="translate(351.727 273.61) rotate(180) scale(94.0616)">
<stop offset="0.0936" stop-color="#241921"/>
<stop offset="1" stop-color="#0144B9" stop-opacity="0"/>
</radialGradient>
<radialGradient id="paint12_radial_28_67" cx="0" cy="0" r="1" gradientUnits="userSpaceOnUse" gradientTransform="translate(529.352 217.244) rotate(180) scale(86.785)">
<stop stop-color="#FB8F8F"/>
<stop offset="1" stop-color="#F9C1DA" stop-opacity="0"/>
</radialGradient>
<radialGradient id="paint13_radial_28_67" cx="0" cy="0" r="1" gradientUnits="userSpaceOnUse" gradientTransform="translate(620.582 201.723) rotate(180) scale(69.8449 69.8451)">
<stop stop-color="#FB8F8F"/>
<stop offset="1" stop-color="#F9C1DA" stop-opacity="0"/>
</radialGradient>
<radialGradient id="paint14_radial_28_67" cx="0" cy="0" r="1" gradientUnits="userSpaceOnUse" gradientTransform="translate(696.553 245.027) rotate(180) scale(203.12 203.12)">
<stop stop-color="#FFE584"/>
<stop offset="0.025" stop-color="#FA484F" stop-opacity="0.975"/>
<stop offset="0.1916" stop-color="#FC7565" stop-opacity="0.8084"/>
<stop offset="0.3589" stop-color="#FD9B78" stop-opacity="0.6411"/>
<stop offset="0.5244" stop-color="#FEB886" stop-opacity="0.4756"/>
<stop offset="0.6876" stop-color="#FECD91" stop-opacity="0.3124"/>
<stop offset="0.8474" stop-color="#FFDA97" stop-opacity="0.1526"/>
<stop offset="1" stop-color="#FFDE99" stop-opacity="0"/>
</radialGradient>
<radialGradient id="paint15_radial_28_67" cx="0" cy="0" r="1" gradientUnits="userSpaceOnUse" gradientTransform="translate(498.304 249.17) rotate(180) scale(45.3592)">
<stop stop-color="#FA404B"/>
<stop offset="0.025" stop-color="#FA484F" stop-opacity="0.975"/>
<stop offset="0.1916" stop-color="#FC7565" stop-opacity="0.8084"/>
<stop offset="0.3589" stop-color="#FD9B78" stop-opacity="0.6411"/>
<stop offset="0.5244" stop-color="#FEB886" stop-opacity="0.4756"/>
<stop offset="0.6876" stop-color="#FECD91" stop-opacity="0.3124"/>
<stop offset="0.8474" stop-color="#FFDA97" stop-opacity="0.1526"/>
<stop offset="1" stop-color="#FFDE99" stop-opacity="0"/>
</radialGradient>
<radialGradient id="paint16_radial_28_67" cx="0" cy="0" r="1" gradientUnits="userSpaceOnUse" gradientTransform="translate(377.077 282.195) rotate(180) scale(81.2546 81.2547)">
<stop offset="0.0936" stop-color="#241921"/>
<stop offset="1" stop-color="#0144B9" stop-opacity="0"/>
</radialGradient>
<radialGradient id="paint17_radial_28_67" cx="0" cy="0" r="1" gradientUnits="userSpaceOnUse" gradientTransform="translate(166.233 61.7738) rotate(180) scale(53.0458)">
<stop stop-color="#0061FE"/>
<stop offset="1" stop-color="white"/>
</radialGradient>
<radialGradient id="paint18_radial_28_67" cx="0" cy="0" r="1" gradientUnits="userSpaceOnUse" gradientTransform="translate(184.289 74.1422) rotate(180) scale(96.2939 96.2937)">
<stop stop-color="#0061FE"/>
<stop offset="1" stop-color="white"/>
</radialGradient>
<radialGradient id="paint19_radial_28_67" cx="0" cy="0" r="1" gradientUnits="userSpaceOnUse" gradientTransform="translate(181.816 81.5632) rotate(180) scale(76.0232 76.0229)">
<stop stop-color="#0061FE"/>
<stop offset="1" stop-color="white"/>
</radialGradient>
<linearGradient id="paint20_linear_28_67" x1="278.882" y1="135.893" x2="214.433" y2="154.931" gradientUnits="userSpaceOnUse">
<stop offset="0.1791" stop-color="#F9C1DA"/>
<stop offset="1" stop-color="#EECFF8" stop-opacity="0"/>
</linearGradient>
<radialGradient id="paint21_radial_28_67" cx="0" cy="0" r="1" gradientUnits="userSpaceOnUse" gradientTransform="translate(256.38 103.038) rotate(180) scale(40.9024 49.6678)">
<stop stop-color="#0061FE"/>
<stop offset="1" stop-color="white"/>
</radialGradient>
<radialGradient id="paint22_radial_28_67" cx="0" cy="0" r="1" gradientUnits="userSpaceOnUse" gradientTransform="translate(208.832 76.5449) rotate(180) scale(60.5243)">
<stop offset="0.1791" stop-color="#F9C1DA"/>
<stop offset="1" stop-color="#EECFF8" stop-opacity="0"/>
</radialGradient>
<radialGradient id="paint23_radial_28_67" cx="0" cy="0" r="1" gradientUnits="userSpaceOnUse" gradientTransform="translate(215.554 277.442) rotate(180) scale(323.147 323.147)">
<stop stop-color="#0061FE"/>
<stop offset="0.0281" stop-color="#106CFE" stop-opacity="0.9719"/>
<stop offset="0.1219" stop-color="#408BFE" stop-opacity="0.8781"/>
<stop offset="0.2211" stop-color="#6AA7FE" stop-opacity="0.7789"/>
<stop offset="0.3241" stop-color="#8EBFFF" stop-opacity="0.6759"/>
<stop offset="0.4318" stop-color="#ABD2FF" stop-opacity="0.5682"/>
<stop offset="0.546" stop-color="#C2E1FF" stop-opacity="0.454"/>
<stop offset="0.6696" stop-color="#D2ECFF" stop-opacity="0.3304"/>
<stop offset="0.8094" stop-color="#DBF2FF" stop-opacity="0.1906"/>
<stop offset="1" stop-color="#DEF4FF" stop-opacity="0"/>
</radialGradient>
<linearGradient id="paint24_linear_28_67" x1="343.046" y1="261.041" x2="157.034" y2="261.041" gradientUnits="userSpaceOnUse">
<stop offset="0.1791" stop-color="#F9C1DA"/>
<stop offset="1" stop-color="#EECFF8" stop-opacity="0"/>
</linearGradient>
<radialGradient id="paint25_radial_28_67" cx="0" cy="0" r="1" gradientUnits="userSpaceOnUse" gradientTransform="translate(653.331 220.682) rotate(180) scale(214.603)">
<stop stop-color="#0061FE"/>
<stop offset="1" stop-color="white"/>
</radialGradient>
</defs>
</svg>
